<?xml version="1.0" standalone="no"?>
<!DOCTYPE svg PUBLIC "-//W3C//DTD SVG 20010904//EN"
 "http://www.w3.org/TR/2001/REC-SVG-20010904/DTD/svg10.dtd">
<svg version="1.0" xmlns="http://www.w3.org/2000/svg"
 width="884.000000pt" height="885.000000pt" viewBox="0 0 884.000000 885.000000"
 preserveAspectRatio="xMidYMid meet">

<g transform="translate(0.000000,885.000000) scale(0.100000,-0.100000)"
fill="#000000" stroke="none">
<path d="M3945 8235 c-5 -1 -37 -8 -70 -15 -102 -21 -250 -100 -334 -177 -86
-79 -161 -188 -161 -234 0 -39 -22 -42 -218 -36 -103 4 -243 11 -312 17 -69 5
-204 15 -300 20 -508 31 -631 38 -690 44 -139 14 -414 24 -435 16 -12 -5 -36
-26 -54 -48 l-31 -40 -5 -703 c-3 -387 -10 -825 -15 -974 -5 -148 -10 -344
-10 -435 0 -151 -11 -463 -40 -1105 -6 -132 -15 -355 -20 -495 -5 -140 -14
-282 -19 -315 -6 -33 -12 -146 -15 -251 -3 -104 -10 -246 -16 -315 -6 -68 -15
-187 -20 -264 -34 -473 -45 -612 -70 -840 -5 -49 -12 -130 -15 -180 -3 -49
-11 -116 -17 -148 -17 -93 20 -179 100 -229 40 -24 54 -26 387 -47 99 -6 207
-15 240 -20 33 -6 125 -13 205 -16 80 -3 192 -10 250 -15 115 -11 303 -24 655
-45 127 -7 282 -18 345 -24 156 -14 499 -40 585 -45 39 -1 133 -8 210 -15 296
-25 504 -40 610 -46 61 -3 142 -10 180 -15 39 -5 133 -11 210 -15 77 -3 172
-10 210 -15 73 -10 273 -24 560 -40 94 -5 202 -14 240 -19 39 -6 149 -13 245
-17 187 -7 216 -2 277 46 64 50 71 90 93 510 8 170 20 355 45 710 8 113 21
345 30 515 8 171 20 402 26 515 5 113 14 345 19 515 5 171 14 384 19 475 6 91
13 311 16 490 3 179 9 388 15 465 15 210 31 1314 20 1335 -9 17 -41 58 -118
150 -36 43 -60 70 -210 237 -39 44 -89 102 -109 129 -20 27 -39 51 -42 54 -3
3 -22 25 -42 50 -20 25 -45 55 -55 66 -11 12 -37 44 -59 70 -78 94 -73 92
-198 97 -121 4 -384 21 -592 38 -107 8 -422 25 -624 32 -50 2 -51 4 -77 97
-51 182 -178 326 -387 439 -54 29 -85 40 -182 61 -37 8 -207 12 -230 5z m283
-104 c130 -44 194 -82 268 -155 104 -103 154 -188 198 -335 33 -109 15 -298
-38 -396 -9 -16 -16 -34 -16 -38 0 -15 -68 -111 -107 -153 -83 -87 -188 -151
-313 -189 -70 -21 -286 -16 -368 8 -145 44 -253 116 -336 227 -94 126 -136
253 -136 413 0 115 13 174 58 265 85 170 215 290 382 351 79 28 92 30 225 27
91 -3 135 -9 183 -25z m-2408 -341 c91 -5 206 -14 255 -20 50 -6 185 -15 300
-20 116 -5 302 -16 415 -25 113 -9 279 -22 370 -28 l165 -12 -2 -35 c-10 -146
-4 -280 15 -350 25 -95 36 -119 89 -202 47 -74 120 -150 185 -194 24 -16 45
-31 48 -34 9 -9 95 -48 140 -63 104 -34 123 -38 202 -44 196 -13 463 96 601
245 20 23 37 43 37 46 0 3 13 24 29 48 65 98 92 187 98 330 4 84 10 121 20
130 11 9 47 9 156 -1 129 -11 315 -22 807 -50 258 -15 316 -21 336 -35 16 -12
17 -33 7 -347 -12 -371 -12 -369 50 -408 26 -16 51 -21 98 -21 35 0 90 -4 122
-10 32 -5 137 -12 235 -16 97 -4 185 -11 195 -16 15 -8 17 -29 17 -222 0 -117
-5 -316 -10 -442 -6 -126 -15 -422 -20 -659 -15 -632 -37 -1272 -45 -1285 -2
-3 -6 -104 -9 -225 -4 -121 -11 -287 -17 -370 -6 -82 -14 -242 -19 -355 -5
-113 -13 -281 -20 -375 -10 -154 -21 -338 -50 -840 -6 -93 -15 -257 -21 -364
-8 -154 -13 -200 -28 -230 -22 -42 -46 -66 -81 -79 -34 -13 -628 21 -935 53
-77 8 -171 15 -209 15 -38 0 -144 7 -235 15 -196 17 -433 34 -621 45 -149 8
-389 25 -605 41 -77 6 -198 14 -270 19 -71 5 -186 14 -255 20 -69 6 -190 15
-270 20 -288 20 -526 39 -565 45 -22 3 -110 10 -195 15 -184 11 -392 26 -550
40 -63 6 -191 15 -285 20 -230 12 -266 21 -309 73 -44 54 -48 75 -36 167 6 41
15 127 20 190 5 63 14 153 20 200 16 135 46 522 69 890 6 96 16 231 22 300 6
69 15 220 20 335 5 116 11 219 14 230 3 11 9 160 15 330 5 171 14 416 20 545
29 660 47 1547 50 2463 0 270 5 459 11 475 18 49 34 54 144 48 55 -4 174 -10
265 -16z m4387 -417 c11 -10 35 -38 55 -63 19 -25 53 -63 74 -85 22 -22 57
-62 79 -90 22 -27 44 -55 50 -61 5 -6 28 -32 50 -59 22 -27 47 -56 55 -65 8
-9 39 -45 69 -81 30 -35 60 -69 66 -74 7 -6 15 -21 19 -33 8 -23 7 -24 -46
-18 -29 3 -143 8 -252 11 -190 6 -201 8 -239 32 l-40 25 8 222 c5 121 10 246
11 276 3 77 3 80 13 80 5 0 17 -8 28 -17z"/>
<path d="M3970 7830 c-15 -10 -13 -10 35 -10 3 0 5 3 6 8 0 11 -25 13 -41 2z"/>
<path d="M2027 5974 c-4 -4 -7 -73 -7 -154 0 -113 -3 -151 -15 -166 -8 -10
-15 -29 -15 -41 0 -21 4 -22 116 -25 120 -3 143 4 130 38 -4 11 -11 14 -24 8
-24 -11 -97 -7 -123 6 -20 11 -21 17 -18 173 4 157 3 162 -16 165 -12 2 -24 0
-28 -4z"/>
<path d="M2500 5952 c-55 -6 -100 -35 -135 -86 -30 -44 -35 -59 -35 -109 0
-55 18 -107 52 -147 48 -56 175 -72 242 -31 21 13 51 42 67 64 26 35 29 48 29
112 0 63 -3 77 -29 111 -47 66 -113 96 -191 86z m91 -55 c85 -57 92 -194 14
-267 -35 -33 -116 -35 -157 -5 -51 38 -72 131 -43 196 41 94 115 124 186 76z"/>
<path d="M2975 5920 c-56 -9 -81 -27 -118 -85 -27 -43 -31 -59 -31 -115 0 -53
5 -73 27 -106 40 -63 88 -89 167 -88 78 0 111 17 160 82 32 41 35 51 35 111
-1 44 -7 77 -19 101 -22 42 -73 89 -101 95 -51 10 -83 11 -120 5z m82 -41 c72
-27 105 -109 84 -204 -16 -69 -45 -96 -111 -103 -41 -4 -56 0 -83 18 -46 32
-67 73 -67 131 0 72 27 121 85 152 36 19 54 21 92 6z"/>
<path d="M3335 5881 c-3 -6 -4 -15 -1 -19 3 -5 2 -83 -3 -173 -4 -90 -6 -170
-4 -176 3 -7 20 -13 39 -13 l33 0 3 83 c4 98 15 104 64 37 18 -25 33 -49 33
-53 2 -22 48 -67 74 -73 42 -9 56 10 30 38 -11 13 -36 48 -54 78 -18 30 -36
57 -40 60 -4 3 -12 18 -18 33 -10 26 -7 32 54 95 36 36 65 70 65 74 0 5 -12 8
-27 8 -22 0 -43 -16 -94 -72 -79 -86 -92 -84 -87 11 l3 66 -32 3 c-17 2 -34
-2 -38 -7z"/>
<path d="M3759 5853 c0 -4 0 -69 1 -143 0 -74 -4 -151 -10 -170 -13 -44 5 -66
45 -56 25 6 26 10 20 46 -5 30 8 246 18 315 1 6 -15 11 -35 13 -21 2 -38 0
-39 -5z"/>
<path d="M3970 5698 c0 -84 -4 -169 -10 -188 -11 -38 0 -52 35 -48 18 3 20 12
25 127 3 84 9 126 17 128 7 3 43 -44 80 -103 37 -59 83 -124 102 -143 31 -33
34 -34 46 -17 11 14 29 231 30 356 0 9 -9 15 -25 15 -25 0 -25 -1 -30 -110 -5
-103 -6 -110 -26 -113 -17 -2 -29 9 -53 50 -17 29 -52 85 -78 123 -41 60 -53
70 -80 73 l-33 3 0 -153z"/>
<path d="M4525 5808 c-98 -53 -125 -94 -125 -191 0 -55 4 -70 29 -104 33 -46
81 -78 131 -87 36 -7 140 2 157 13 6 3 13 43 17 89 l6 82 -60 0 c-65 0 -78
-12 -30 -29 64 -22 23 -121 -50 -121 -37 0 -92 39 -112 80 -34 66 -20 141 35
198 27 27 38 32 80 32 34 0 57 -6 74 -20 42 -32 69 -20 54 24 -14 37 -157 61
-206 34z"/>
<path d="M5055 5613 c-3 -93 -7 -177 -8 -188 -2 -16 4 -20 27 -20 l30 0 -3 65
c-3 98 21 117 118 95 21 -4 30 -2 35 10 10 27 -2 35 -54 35 -26 0 -55 3 -64 6
-21 8 -30 62 -17 97 11 28 12 28 91 26 44 -1 83 1 87 5 16 15 -19 24 -123 30
l-112 6 -7 -167z"/>
<path d="M5526 5763 c-61 -10 -120 -65 -137 -128 -16 -58 -6 -157 20 -199 56
-90 232 -104 310 -24 59 61 65 203 10 278 -43 57 -123 86 -203 73z m88 -47
c54 -22 86 -79 86 -149 0 -101 -49 -167 -125 -167 -49 0 -88 25 -115 72 -18
32 -21 51 -18 101 4 67 25 102 83 138 36 23 46 23 89 5z"/>
<path d="M5888 5560 c-1 -93 -2 -180 -2 -192 -1 -20 4 -23 34 -23 l35 0 -3 63
c-4 69 7 92 43 92 27 0 35 -10 64 -80 27 -65 47 -90 72 -90 28 0 32 18 10 46
-12 15 -21 34 -21 43 0 9 -7 25 -15 35 -22 30 -18 54 15 88 23 23 30 38 30 69
0 83 -54 119 -181 119 l-79 0 -2 -170z m156 129 c35 -16 49 -62 32 -104 -11
-26 -22 -34 -51 -39 -52 -10 -65 5 -65 73 0 78 23 97 84 70z"/>
<path d="M2154 4635 c-3 -8 -3 -18 0 -23 3 -5 72 -12 153 -15 140 -6 240 -14
503 -38 63 -5 192 -14 285 -19 94 -5 181 -12 195 -15 14 -3 111 -9 215 -15
105 -5 242 -14 305 -19 63 -6 189 -15 280 -21 91 -6 255 -17 365 -25 110 -8
270 -19 355 -24 176 -12 261 -18 440 -31 235 -18 549 -6 375 14 -174 20 -256
27 -420 37 -471 28 -1023 66 -1080 73 -22 3 -85 8 -140 11 -55 3 -149 10 -210
15 -60 6 -186 14 -280 20 -93 6 -183 13 -200 16 -16 2 -122 9 -235 14 -312 14
-540 29 -700 45 -179 19 -199 19 -206 0z"/>
<path d="M2136 3972 c-21 -4 -21 -38 0 -46 9 -3 41 -6 72 -6 63 0 421 -22 722
-45 107 -8 242 -17 300 -21 58 -3 116 -7 129 -10 14 -2 111 -8 215 -14 105 -5
236 -15 291 -20 55 -6 170 -15 255 -20 353 -22 471 -30 575 -39 61 -6 164 -13
230 -16 66 -3 208 -12 315 -20 107 -8 224 -17 260 -19 36 -2 141 -9 233 -15
93 -6 173 -9 178 -6 5 4 5 14 -1 26 -9 16 -22 19 -73 19 -66 0 -370 21 -652
45 -422 37 -868 68 -1545 109 -140 9 -266 18 -280 22 -14 3 -106 10 -205 14
-216 11 -430 26 -580 42 -115 12 -411 25 -439 20z"/>
<path d="M2083 3287 c-2 -4 -1 -16 2 -27 6 -18 15 -20 88 -20 45 0 143 -6 217
-15 136 -14 326 -29 605 -45 83 -5 168 -11 190 -15 38 -6 228 -19 700 -50 303
-19 499 -33 635 -45 176 -16 619 -32 673 -25 45 7 67 25 30 25 -10 1 -49 5
-88 10 -65 10 -305 25 -765 50 -102 5 -204 12 -228 15 -23 4 -136 13 -250 21
-395 27 -488 34 -607 44 -66 6 -183 15 -260 20 -77 5 -185 13 -240 19 -268 27
-694 50 -702 38z"/>
<path d="M3883 2604 c-50 -25 -73 -70 -73 -142 0 -33 -5 -64 -10 -67 -6 -4
-23 1 -38 11 -74 51 -90 53 -150 24 -54 -26 -72 -54 -72 -112 0 -41 5 -52 38
-85 20 -21 46 -43 57 -50 19 -11 18 -14 -21 -47 -24 -21 -48 -54 -58 -80 -16
-41 -16 -47 -1 -76 28 -54 110 -75 179 -46 45 19 56 6 56 -59 0 -44 5 -57 33
-88 43 -48 87 -51 134 -7 28 26 53 81 53 116 0 28 23 31 63 8 74 -42 149 -23
177 45 18 44 -10 122 -57 158 -32 25 -34 28 -17 40 10 7 25 13 33 13 45 1 92
72 93 141 1 49 -1 55 -37 86 -32 27 -47 33 -85 33 -26 0 -61 -7 -78 -16 -18
-8 -36 -13 -42 -9 -5 3 -10 37 -10 74 0 62 -3 71 -32 105 -40 44 -86 55 -135
30z m93 -42 c33 -26 44 -56 44 -117 0 -41 -7 -71 -25 -108 -14 -28 -25 -59
-23 -69 2 -15 15 -6 64 41 48 45 71 60 102 66 64 11 114 -13 133 -62 13 -34
-5 -68 -52 -103 -40 -28 -47 -30 -135 -30 -91 0 -132 -14 -77 -25 95 -20 121
-31 166 -73 40 -38 47 -50 47 -83 0 -68 -59 -98 -135 -69 -29 11 -64 48 -65
67 0 23 -43 94 -50 86 -5 -4 -4 -35 2 -68 15 -94 3 -162 -37 -202 -49 -49 -79
-40 -109 31 -22 53 -20 92 9 167 29 72 30 101 3 72 -9 -10 -38 -42 -65 -72
-47 -51 -51 -53 -101 -54 -65 -1 -86 17 -84 69 3 64 74 119 173 133 75 10 96
33 41 43 -20 4 -59 7 -85 7 -71 1 -120 30 -137 81 -12 36 -12 46 1 69 36 63
120 65 184 3 21 -20 49 -54 63 -74 43 -66 57 -38 24 49 -13 32 -18 69 -16 112
2 56 6 67 35 97 37 38 72 44 105 16z"/>
</g>
</svg>
