<?xml version="1.0" standalone="no"?>
<!DOCTYPE svg PUBLIC "-//W3C//DTD SVG 20010904//EN"
 "http://www.w3.org/TR/2001/REC-SVG-20010904/DTD/svg10.dtd">
<svg version="1.0" xmlns="http://www.w3.org/2000/svg"
 width="981.000000pt" height="690.000000pt" viewBox="0 0 981.000000 690.000000"
 preserveAspectRatio="xMidYMid meet">

<g transform="translate(0.000000,690.000000) scale(0.100000,-0.100000)"
fill="#000000" stroke="none">
<path d="M1037 5808 c-17 -6 -29 -19 -32 -36 -23 -112 -81 -218 -162 -297 -55
-54 -136 -101 -193 -111 -72 -13 -80 -25 -79 -117 1 -45 4 -120 7 -166 l7 -84
37 -13 c49 -17 81 -48 113 -107 31 -59 32 -118 5 -179 -22 -50 -87 -114 -130
-130 -16 -5 -30 -15 -33 -21 -2 -7 -2 -58 1 -115 l4 -103 39 -16 c69 -27 139
-132 139 -206 0 -43 -31 -122 -63 -162 -14 -18 -46 -42 -70 -54 -27 -13 -47
-31 -51 -44 -8 -31 -7 -170 2 -182 4 -6 28 -23 54 -38 75 -43 98 -81 98 -159
0 -64 -1 -67 -41 -107 -23 -22 -46 -41 -53 -41 -6 0 -21 -8 -34 -18 -20 -15
-23 -27 -23 -92 0 -41 0 -82 0 -92 1 -9 21 -26 46 -38 52 -25 84 -63 115 -135
25 -57 23 -89 -10 -158 -26 -55 -63 -95 -106 -113 -50 -21 -52 -29 -45 -158
l6 -119 44 -24 c25 -13 53 -31 63 -40 30 -27 68 -119 68 -163 0 -74 -55 -155
-129 -189 -32 -16 -50 -31 -53 -45 -8 -44 -8 -332 0 -343 4 -7 28 -17 53 -21
101 -20 246 -123 292 -208 38 -72 56 -116 73 -183 12 -48 23 -71 34 -72 8 -1
1250 -1 2760 0 l2745 0 20 23 c46 51 116 108 132 108 10 0 45 -29 79 -65 l61
-65 889 0 c489 0 897 0 906 0 12 0 19 11 23 37 26 166 93 275 219 356 60 39
117 63 167 72 24 3 38 12 41 23 2 9 2 94 0 188 l-4 172 -42 16 c-50 19 -74 43
-110 108 -60 108 -13 239 109 304 l40 22 3 125 3 125 -46 22 c-25 12 -54 34
-65 48 -11 15 -23 32 -28 37 -16 20 -42 96 -42 124 0 62 89 201 129 201 31 0
49 33 56 102 8 74 12 67 -80 148 -89 79 -103 124 -66 205 23 50 37 63 81 67
30 3 37 8 47 38 16 48 17 189 1 194 -7 3 -25 7 -40 10 -35 8 -88 65 -110 118
-9 24 -17 70 -17 102 -1 48 5 70 30 115 35 62 74 100 104 101 11 0 25 4 31 8
12 8 26 233 15 250 -3 5 -24 18 -46 30 -115 58 -166 185 -115 289 22 45 82 98
123 108 15 4 32 15 37 24 7 14 7 142 0 333 0 4 -26 15 -57 24 -71 20 -166 72
-213 116 -42 39 -100 112 -100 126 0 5 -6 15 -14 21 -8 6 -16 24 -19 39 -3 15
-11 52 -17 83 -9 44 -17 59 -36 68 -18 8 -272 11 -897 11 -745 -1 -875 -3
-891 -15 -11 -8 -36 -38 -56 -67 -64 -93 -106 -96 -154 -14 -14 24 -40 56 -57
70 l-31 26 -2731 -1 c-1804 0 -2741 -4 -2760 -11z m5495 -75 c10 -9 18 -22 18
-30 0 -8 30 -43 66 -79 64 -62 67 -64 83 -47 10 10 38 34 64 53 26 19 49 42
52 51 3 9 17 29 30 43 l24 26 849 0 c668 0 852 -3 859 -12 5 -7 18 -42 28 -78
11 -36 29 -82 41 -103 59 -105 179 -206 295 -248 33 -12 63 -27 67 -33 7 -12
4 -200 -4 -228 -3 -9 -13 -20 -23 -23 -30 -9 -98 -82 -121 -130 -17 -35 -22
-63 -22 -123 1 -104 28 -154 118 -222 l54 -41 0 -55 c0 -56 -1 -57 -65 -121
-83 -83 -106 -133 -113 -245 -4 -76 -2 -91 19 -134 14 -27 52 -72 91 -107 37
-33 70 -67 73 -76 8 -28 -22 -76 -90 -145 -77 -77 -96 -124 -75 -187 15 -43
71 -128 127 -192 18 -20 33 -45 33 -54 0 -10 -23 -41 -51 -69 -52 -53 -61 -66
-100 -144 -16 -34 -22 -64 -23 -120 -1 -66 2 -80 26 -117 35 -54 66 -84 111
-108 39 -21 40 -24 39 -114 0 -54 -1 -54 -67 -114 -89 -80 -110 -126 -110
-237 0 -68 5 -93 22 -126 22 -42 87 -104 109 -104 7 0 22 -12 34 -27 21 -26
22 -36 17 -134 -5 -124 -14 -146 -63 -155 -20 -4 -54 -17 -77 -30 -23 -13 -51
-28 -62 -33 -21 -9 -122 -113 -142 -146 -24 -41 -51 -101 -62 -145 -23 -87
-31 -99 -70 -107 -20 -5 -400 -7 -844 -6 -889 2 -838 -2 -875 62 -8 15 -38 43
-66 62 -42 29 -52 41 -57 72 -10 65 -28 60 -49 -14 -7 -26 -22 -43 -53 -63
-23 -15 -50 -40 -59 -57 -10 -16 -30 -35 -45 -42 -42 -18 -5378 -18 -5411 1
-13 7 -22 22 -22 36 0 22 -4 33 -46 121 -22 45 -52 93 -71 113 -7 7 -18 21
-25 30 -18 25 -127 104 -168 123 -19 9 -50 20 -68 23 -18 4 -37 16 -42 26 -6
10 -10 71 -10 135 l0 116 59 37 c38 24 71 54 93 87 31 47 33 55 33 140 0 71
-4 99 -22 135 -20 43 -76 101 -137 143 -23 16 -26 25 -26 76 0 64 4 70 98 149
71 59 87 96 87 207 0 102 -13 139 -69 198 -19 20 -37 37 -41 37 -3 0 -21 14
-40 32 -49 44 -47 75 8 125 85 78 137 165 137 229 0 50 -31 103 -101 173 -59
60 -61 63 -57 104 4 35 15 53 63 102 32 33 69 84 83 114 22 47 24 63 19 130
-7 98 -28 139 -116 227 -87 88 -93 116 -33 170 91 84 104 99 125 138 27 52 28
180 3 239 -22 50 -72 104 -118 128 -20 10 -39 28 -43 39 -3 10 -5 61 -3 112 3
101 13 122 65 134 47 11 145 75 209 137 62 58 134 181 149 252 4 17 8 36 11
43 3 9 556 12 2725 12 2519 0 2724 -1 2741 -17z"/>
<path d="M6660 5170 c0 -79 3 -100 14 -100 10 0 16 23 21 89 7 93 4 111 -21
111 -11 0 -14 -20 -14 -100z"/>
<path d="M1700 4934 c-89 -34 -124 -73 -141 -157 -36 -176 99 -293 281 -244
69 19 70 20 70 106 0 84 -11 107 -42 90 -11 -6 -33 -7 -49 -4 -18 4 -36 2 -44
-5 -20 -17 -9 -30 24 -30 34 0 51 -17 51 -49 0 -32 -8 -45 -37 -60 -55 -28
-120 -8 -163 50 -24 33 -30 52 -30 91 0 90 45 150 121 163 40 7 99 -9 99 -26
0 -5 11 -9 25 -9 35 0 35 43 0 66 -25 16 -137 29 -165 18z"/>
<path d="M3123 4934 c-12 -3 -34 -19 -48 -35 -51 -62 -22 -147 63 -184 55 -24
102 -61 102 -81 0 -8 -11 -26 -25 -39 -32 -33 -98 -35 -131 -4 -12 12 -27 18
-33 14 -22 -13 -11 -45 22 -66 26 -16 45 -19 99 -17 75 4 101 20 125 76 27 64
-11 123 -99 156 -47 17 -88 56 -88 83 0 23 47 63 75 63 15 0 38 -9 52 -20 14
-11 30 -20 34 -20 14 0 10 46 -4 58 -15 13 -111 23 -144 16z"/>
<path d="M5692 4932 c-9 -7 -12 -54 -10 -203 l3 -194 24 -3 c35 -5 45 12 42
70 -3 64 17 99 46 82 10 -6 38 -41 63 -78 43 -63 75 -86 99 -71 7 4 1 21 -14
45 -14 22 -25 46 -25 54 0 7 -7 19 -15 26 -23 19 -18 44 14 68 34 25 49 89 32
133 -18 50 -62 70 -159 74 -48 3 -93 1 -100 -3z m180 -75 c40 -50 6 -110 -63
-111 l-44 -1 -3 60 c-3 48 0 62 15 73 24 17 73 6 95 -21z"/>
<path d="M2055 4734 c0 -170 2 -198 16 -207 9 -6 24 -7 33 -4 14 6 16 30 16
207 l0 200 -32 0 -33 0 0 -196z"/>
<path d="M2275 4727 l0 -202 35 0 35 0 3 72 c4 111 42 121 97 26 40 -70 64
-93 97 -93 15 0 28 4 28 9 0 12 -63 115 -72 119 -18 8 -6 46 22 72 27 25 30
35 30 85 0 51 -3 60 -31 86 -30 28 -34 29 -138 29 l-106 0 0 -203z m197 131
c26 -34 22 -63 -13 -92 -32 -27 -67 -33 -100 -16 -24 14 -26 85 -3 119 14 20
23 22 57 18 26 -4 47 -14 59 -29z"/>
<path d="M2697 4734 c1 -108 3 -198 5 -199 3 -3 212 -8 236 -6 6 0 12 12 12
25 0 27 -15 42 -25 26 -3 -5 -34 -10 -69 -10 -97 0 -99 4 -95 197 l4 158 -35
3 -35 3 2 -197z"/>
<path d="M3628 4738 c-2 -117 1 -198 7 -207 13 -18 186 -10 236 11 19 9 51 35
70 59 33 42 34 46 34 129 0 78 -2 88 -28 122 -46 60 -96 78 -214 78 l-101 0
-4 -192z m173 142 c83 -23 135 -141 95 -218 -21 -41 -56 -69 -101 -81 -97 -26
-105 -15 -105 153 0 89 4 136 12 144 15 15 51 15 99 2z"/>
<path d="M4105 4733 c2 -109 5 -201 5 -204 0 -12 70 -7 70 5 1 6 1 97 1 201
l0 190 -41 3 -40 3 5 -198z"/>
<path d="M4330 4730 l0 -201 33 3 32 3 3 123 c2 109 4 122 20 122 11 0 32 -22
53 -56 56 -91 118 -171 145 -189 48 -31 53 -12 55 200 l1 190 -32 3 -32 3 3
-118 c4 -114 3 -118 -17 -121 -16 -2 -28 8 -47 40 -15 24 -53 77 -85 118 -52
67 -62 75 -95 78 l-37 3 0 -201z"/>
<path d="M4820 4725 c0 -185 2 -205 17 -205 9 0 24 7 32 15 14 12 15 28 9 112
-8 110 -5 133 21 133 16 0 71 -58 71 -75 0 -14 122 -165 142 -176 18 -10 24
-8 35 7 7 10 11 25 8 32 -3 8 -5 92 -5 188 l0 175 -27 -3 -28 -3 3 -105 c2
-81 0 -110 -12 -125 -9 -13 -18 -16 -24 -10 -21 23 -132 174 -132 180 0 3 -10
19 -22 35 -16 23 -30 30 -55 30 l-33 0 0 -205z"/>
<path d="M5306 4743 c-4 -104 -4 -196 -1 -205 6 -16 22 -18 120 -18 116 0 143
9 130 42 -5 12 -20 14 -74 10 -65 -4 -69 -3 -89 23 -29 37 -28 76 3 105 21 19
31 22 69 17 45 -6 59 2 48 30 -3 9 -19 11 -58 7 -65 -8 -83 7 -84 72 0 55 25
69 114 62 64 -6 66 -5 66 18 0 24 0 24 -119 24 l-118 0 -7 -187z"/>
<path d="M6660 4868 c0 -71 13 -103 30 -78 6 8 8 31 5 50 -2 19 -5 47 -5 63 0
17 -5 27 -15 27 -12 0 -15 -14 -15 -62z"/>
<path d="M6666 4624 c-11 -28 -7 -222 5 -229 6 -4 13 -4 17 0 9 9 16 189 8
220 -7 28 -21 32 -30 9z"/>
<path d="M7555 4253 c-28 -7 -45 -23 -45 -40 0 -13 3 -13 15 -3 10 8 40 11 89
8 89 -4 127 -26 138 -79 4 -19 5 -328 3 -687 -4 -648 -4 -652 -25 -680 -32
-40 -78 -61 -138 -62 -54 0 -110 21 -125 46 -10 17 -47 19 -47 3 0 -28 37 -69
75 -83 58 -22 172 -21 227 3 52 23 77 45 103 94 l20 37 125 0 c147 0 208 14
288 67 54 37 86 72 118 133 15 28 18 57 18 150 0 99 -4 122 -24 164 -30 66
-109 142 -160 156 -33 9 -40 15 -40 35 0 16 7 26 22 31 92 29 168 145 168 256
0 93 -26 165 -81 218 -65 64 -117 80 -264 80 -66 0 -130 3 -143 6 -31 9 -38
47 -17 94 9 21 15 42 12 47 -6 9 -280 15 -312 6z m508 -199 c78 -20 121 -53
152 -119 21 -45 25 -69 25 -140 0 -124 -39 -192 -135 -236 -50 -23 -240 -28
-248 -6 -3 7 -4 122 -3 255 1 204 3 244 16 252 23 15 125 12 193 -6z m41 -585
c31 -12 56 -26 56 -30 0 -5 6 -9 14 -9 15 0 58 -52 91 -110 16 -29 19 -52 18
-145 -1 -128 -18 -177 -80 -236 -70 -68 -108 -80 -236 -77 l-112 3 4 305 c1
168 5 308 8 313 2 4 44 7 93 7 66 0 102 -5 144 -21z"/>
<path d="M6667 4193 c-4 -3 -7 -107 -7 -230 0 -199 2 -224 16 -221 13 3 15 31
15 218 0 118 0 221 0 228 -1 13 -14 16 -24 5z"/>
<path d="M7375 4102 c-106 -32 -142 -62 -181 -150 -19 -40 -24 -70 -24 -129 0
-125 41 -209 125 -259 25 -14 45 -30 45 -34 0 -5 -24 -19 -53 -33 -78 -36
-134 -111 -160 -219 -22 -86 -21 -118 3 -202 21 -75 30 -86 71 -86 15 0 43 -7
62 -15 55 -23 207 -20 260 4 44 21 97 65 97 81 0 13 -9 12 -25 -2 -58 -52
-108 -72 -177 -70 -77 2 -132 31 -173 92 -28 43 -30 50 -30 145 0 98 1 101 37
157 50 77 100 108 189 115 l70 6 43 -46 c23 -25 51 -64 61 -87 22 -49 39 -47
43 4 2 26 -5 53 -24 89 -23 44 -25 56 -16 82 6 16 14 54 18 83 6 49 5 54 -12
50 -11 -2 -21 -14 -24 -29 -3 -14 -14 -38 -26 -53 -17 -23 -30 -30 -71 -33
-69 -7 -116 11 -167 62 -123 123 -91 348 58 419 89 42 157 33 208 -29 16 -19
17 -19 24 -1 11 28 -8 69 -40 85 -46 22 -143 23 -211 3z"/>
<path d="M3735 3789 c-38 -11 -63 -46 -40 -56 9 -3 27 0 41 7 20 11 28 11 49
0 39 -21 33 -60 -16 -111 -61 -63 -89 -103 -81 -116 11 -18 130 -27 158 -12
40 21 25 48 -20 40 -17 -4 -56 9 -56 18 0 5 19 27 41 49 35 34 42 48 46 89 4
37 1 53 -13 70 -22 25 -67 34 -109 22z"/>
<path d="M1582 3767 c-27 -28 -30 -88 -6 -108 9 -8 38 -25 63 -39 36 -19 46
-31 46 -50 0 -23 -4 -25 -45 -25 -25 1 -51 3 -59 5 -30 10 -23 -29 8 -44 41
-21 73 -20 115 5 70 41 56 108 -31 150 -63 30 -77 48 -55 72 16 18 26 18 80 2
17 -6 22 -3 22 12 0 30 -21 43 -70 43 -36 0 -52 -5 -68 -23z"/>
<path d="M1913 3778 c-11 -15 -43 -83 -43 -92 0 -3 -16 -40 -36 -82 -34 -74
-38 -104 -12 -104 7 0 24 16 37 35 22 33 27 35 76 35 49 0 53 -2 60 -27 7 -28
21 -43 41 -43 22 0 23 30 3 77 -11 26 -24 57 -28 68 -5 11 -18 41 -30 66 -11
25 -21 51 -21 57 0 5 -7 13 -16 16 -21 8 -20 8 -31 -6z m31 -107 c23 -25 17
-55 -12 -59 -26 -4 -37 17 -28 53 8 30 17 31 40 6z"/>
<path d="M2085 3780 c-11 -17 14 -38 36 -33 32 9 39 -13 39 -115 0 -95 10
-132 35 -132 20 0 28 57 23 146 -6 84 2 101 47 106 19 2 31 9 33 21 3 15 -7
17 -102 17 -62 0 -107 -4 -111 -10z"/>
<path d="M2615 3780 c-3 -6 -9 -66 -12 -135 -5 -96 -3 -128 7 -141 23 -27 40
10 40 88 0 37 4 68 8 68 5 0 19 -21 31 -47 33 -72 36 -76 54 -87 20 -13 41 11
56 61 5 18 18 44 29 58 25 32 32 18 32 -68 0 -70 12 -99 31 -80 14 14 13 272
-1 286 -22 23 -47 -2 -91 -91 l-46 -93 -42 88 c-23 48 -48 91 -54 95 -17 11
-35 10 -42 -2z"/>
<path d="M3062 3743 c-11 -27 -27 -68 -35 -93 -8 -25 -22 -58 -31 -75 -9 -16
-16 -40 -16 -52 0 -30 28 -30 39 0 14 36 38 50 88 49 50 -1 59 -7 65 -36 4
-27 34 -44 49 -29 10 10 9 21 -4 53 -9 22 -23 57 -31 78 -27 74 -50 127 -59
140 -20 26 -44 12 -65 -35z m70 -104 c3 -21 -1 -24 -27 -24 -31 0 -32 3 -19
64 5 24 5 24 24 4 10 -11 20 -31 22 -44z"/>
<path d="M3267 3783 c-6 -9 6 -37 33 -78 38 -59 49 -91 52 -145 2 -41 7 -55
18 -55 11 0 16 15 18 59 3 50 9 67 46 120 53 76 60 95 40 103 -15 6 -54 -22
-54 -40 0 -5 -11 -22 -24 -38 l-24 -29 -28 48 c-15 26 -32 50 -38 54 -14 10
-34 10 -39 1z"/>
<path d="M3972 3767 c-24 -25 -28 -67 -10 -96 9 -14 8 -23 -5 -42 -10 -13 -17
-36 -17 -52 0 -38 51 -87 92 -87 37 0 84 24 99 51 13 25 5 76 -16 99 -14 15
-14 18 0 30 23 19 19 73 -8 98 -33 31 -105 31 -135 -1z m88 -32 c16 -19 3 -55
-20 -55 -25 0 -41 29 -29 52 12 22 32 23 49 3z m8 -124 c27 -23 28 -47 3 -61
-34 -18 -61 -12 -72 16 -7 21 -6 31 7 45 21 24 33 23 62 0z"/>
<path d="M6667 3563 c-9 -8 -9 -246 -1 -267 17 -43 24 -3 24 129 0 133 -4 157
-23 138z"/>
<path d="M2337 3543 c-4 -3 -7 -26 -7 -50 0 -36 3 -44 16 -41 9 2 23 20 32 42
13 32 13 39 1 47 -17 10 -33 11 -42 2z"/>
<path d="M6670 3078 c-1 -2 -3 -90 -7 -195 -5 -174 -4 -193 11 -193 9 0 16 8
17 18 6 153 0 372 -11 372 -5 0 -10 -1 -10 -2z"/>
<path d="M2060 3013 c-69 -19 -100 -66 -100 -152 0 -69 16 -110 54 -135 42
-27 88 -21 128 18 40 39 51 78 42 148 -9 69 -75 134 -124 121z m41 -62 c21
-17 24 -28 24 -91 0 -64 -3 -73 -24 -90 -48 -36 -91 7 -91 92 0 70 16 99 61
107 4 0 17 -8 30 -18z"/>
<path d="M2340 3011 c-57 -22 -90 -78 -90 -151 0 -87 46 -149 110 -150 45 0
78 23 96 66 26 62 13 174 -25 208 -23 21 -71 35 -91 27z m55 -66 c21 -20 25
-34 25 -82 0 -89 -41 -130 -91 -92 -21 16 -24 26 -24 89 0 63 3 74 24 91 30
25 37 24 66 -6z"/>
<path d="M2748 3012 c-44 -4 -44 -6 -47 -157 -2 -78 2 -115 11 -127 19 -26 38
-8 43 40 5 55 10 62 50 62 46 0 84 35 92 82 5 33 2 41 -26 67 -32 30 -62 38
-123 33z m83 -75 c14 -25 -2 -62 -29 -69 -26 -7 -38 1 -45 33 -14 56 48 86 74
36z"/>
<path d="M1562 2988 c3 -20 9 -23 57 -25 30 -2 57 -5 59 -8 3 -3 0 -15 -6 -28
-6 -12 -20 -44 -32 -72 -12 -27 -28 -64 -37 -81 -28 -55 3 -87 32 -34 17 30
55 116 55 125 0 3 11 28 25 57 40 84 36 88 -82 88 -71 0 -74 -1 -71 -22z"/>
<path d="M2985 2993 c-3 -10 -9 -76 -12 -146 l-6 -129 24 4 c22 3 24 8 27 73
4 105 10 109 47 29 19 -39 40 -76 49 -83 16 -13 18 -10 70 97 14 30 30 51 36
47 5 -3 10 -42 10 -85 0 -43 4 -81 8 -84 11 -7 30 7 32 24 6 42 -2 247 -10
260 -14 23 -40 2 -71 -56 -14 -27 -34 -66 -45 -87 l-20 -39 -38 79 c-42 85
-62 113 -81 113 -7 0 -16 -8 -20 -17z"/>
<path d="M1824 2915 c-4 -10 -1 -21 7 -26 20 -12 34 -5 34 17 0 24 -33 31 -41
9z"/>
<path d="M1816 2761 c-3 -4 1 -16 8 -26 16 -23 46 -13 46 15 0 15 -7 20 -24
20 -14 0 -27 -4 -30 -9z"/>
<path d="M6667 2453 c-4 -6 -2 -238 2 -276 1 -5 6 -5 11 -2 13 8 13 285 1 285
-6 0 -12 -3 -14 -7z"/>
<path d="M1652 2210 c-76 -18 -126 -113 -102 -193 21 -72 68 -107 142 -107 50
0 95 28 85 53 -6 15 -10 15 -42 1 -74 -30 -138 17 -138 102 0 75 66 124 130
97 45 -18 65 -7 44 26 -10 16 -85 30 -119 21z"/>
<path d="M2250 2211 l-35 -6 0 -145 0 -145 65 -3 c88 -4 114 3 100 28 -7 14
-23 20 -57 22 -30 2 -50 9 -57 21 -15 24 4 51 40 55 62 8 76 52 17 52 -55 0
-70 12 -57 47 8 25 15 28 56 31 59 4 83 27 43 42 -28 11 -59 11 -115 1z"/>
<path d="M2785 2212 c-42 -5 -75 -39 -75 -77 0 -34 20 -57 82 -94 41 -24 54
-47 37 -67 -13 -16 -47 -18 -83 -5 -18 7 -27 6 -36 -4 -17 -21 34 -55 84 -55
59 0 100 35 99 84 -1 45 -24 73 -81 97 -48 21 -62 44 -39 66 11 11 23 13 44 8
27 -8 54 -7 62 1 7 7 -29 42 -47 46 -9 2 -30 2 -47 0z"/>
<path d="M3030 2211 l-45 -6 0 -145 0 -145 74 -3 c79 -3 103 7 81 33 -8 10
-30 15 -62 15 -53 0 -65 12 -54 55 5 20 13 25 37 25 38 0 69 16 69 35 0 11
-11 15 -39 15 -36 0 -71 19 -71 39 0 18 28 31 67 31 46 0 73 26 51 48 -13 13
-33 13 -108 3z"/>
<path d="M4526 2212 c-17 -2 -45 -20 -72 -48 -41 -41 -44 -47 -44 -97 0 -91
60 -155 148 -156 54 -1 110 33 92 54 -9 10 -18 11 -36 4 -73 -27 -137 3 -148
71 -12 78 43 143 109 126 14 -3 36 -9 50 -12 18 -5 25 -2 25 8 0 35 -57 57
-124 50z"/>
<path d="M1877 2204 c-9 -10 -9 -266 1 -281 15 -24 36 6 42 59 l5 53 65 0 65
0 5 -60 c4 -53 8 -60 28 -63 16 -2 22 2 22 15 0 10 2 73 3 141 1 68 0 128 -4
134 -3 5 -15 8 -25 6 -15 -2 -20 -15 -24 -58 l-5 -55 -65 0 -65 0 -5 55 c-4
39 -10 56 -20 58 -9 1 -19 0 -23 -4z"/>
<path d="M2470 2066 c0 -168 -5 -160 105 -154 52 3 60 6 60 23 0 17 -8 21 -55
25 l-55 5 -5 120 c-5 115 -6 120 -27 123 -23 3 -23 3 -23 -142z"/>
<path d="M3318 2188 c-8 -13 -25 -52 -37 -88 -13 -36 -32 -83 -42 -106 -25
-53 -24 -74 1 -74 11 0 20 7 20 15 0 30 38 55 83 55 50 0 60 -6 78 -45 29 -61
68 -33 43 30 -7 17 -20 50 -29 75 -9 25 -23 58 -31 73 -8 16 -14 35 -14 42 0
17 -27 45 -45 45 -7 0 -19 -10 -27 -22z m46 -99 c21 -35 15 -59 -13 -59 -27 0
-34 15 -27 56 8 42 17 43 40 3z"/>
<path d="M3827 2203 c-12 -11 -8 -281 4 -289 22 -13 34 19 36 94 1 60 5 78 17
80 8 2 20 -7 27 -20 6 -13 32 -51 58 -86 33 -46 51 -62 66 -60 19 3 20 12 25
126 5 134 0 165 -27 160 -15 -3 -19 -17 -23 -82 -3 -44 -9 -81 -15 -83 -5 -1
-21 14 -35 35 -74 111 -112 147 -133 125z"/>
<path d="M4137 2203 c-3 -5 6 -26 19 -48 54 -90 64 -116 64 -157 0 -47 9 -88
19 -88 24 1 35 23 35 77 1 52 6 67 49 135 26 41 47 78 47 82 0 3 -10 6 -23 6
-16 0 -31 -13 -51 -44 -28 -45 -50 -61 -67 -50 -5 3 -9 10 -9 16 0 6 -11 26
-26 45 -24 31 -47 42 -57 26z"/>
<path d="M6660 1876 c0 -72 4 -117 11 -122 21 -13 26 13 21 124 -3 87 -7 112
-18 112 -11 0 -14 -23 -14 -114z"/>
<path d="M3541 1943 c0 -10 4 -36 8 -58 8 -39 8 -40 19 -15 7 14 17 32 24 41
16 24 3 49 -27 49 -17 0 -25 -5 -24 -17z"/>
</g>
</svg>
