<?xml version="1.0" standalone="no"?>
<!DOCTYPE svg PUBLIC "-//W3C//DTD SVG 20010904//EN"
 "http://www.w3.org/TR/2001/REC-SVG-20010904/DTD/svg10.dtd">
<svg version="1.0" xmlns="http://www.w3.org/2000/svg"
 width="765.000000pt" height="740.000000pt" viewBox="0 0 765.000000 740.000000"
 preserveAspectRatio="xMidYMid meet">

<g transform="translate(0.000000,740.000000) scale(0.100000,-0.100000)"
fill="#000000" stroke="none">
<path d="M3524 7082 c-143 -47 -219 -133 -260 -294 -27 -105 -2 -238 63 -331
48 -69 169 -147 227 -147 12 0 30 -6 40 -13 16 -12 18 -30 19 -145 0 -92 -4
-136 -13 -147 -8 -10 -30 -15 -64 -15 -150 -1 -433 -60 -563 -116 -17 -8 -36
-14 -41 -14 -6 0 -23 -6 -39 -14 -15 -8 -77 -38 -138 -67 -90 -43 -210 -113
-260 -151 -5 -5 -50 -38 -100 -75 -91 -67 -288 -256 -339 -325 -40 -54 -52
-52 -140 27 -6 6 -37 32 -69 58 -59 50 -70 76 -43 106 8 9 22 54 31 100 16 79
16 87 0 150 -36 134 -102 219 -214 278 -204 108 -424 35 -533 -175 -32 -62
-33 -68 -33 -181 1 -111 2 -118 32 -173 38 -68 83 -114 153 -157 62 -38 117
-52 227 -58 57 -3 83 -9 87 -18 3 -8 -13 -36 -35 -62 -22 -26 -49 -68 -61 -91
-18 -39 -19 -45 -5 -59 25 -25 49 -7 104 74 29 43 67 95 86 115 18 21 42 54
53 74 34 66 45 66 117 -1 35 -33 80 -73 100 -88 39 -29 47 -56 22 -77 -8 -7
-15 -17 -15 -23 0 -6 -6 -18 -14 -26 -18 -21 -87 -147 -132 -241 -19 -41 -42
-88 -50 -103 -7 -16 -14 -33 -14 -39 0 -5 -6 -24 -14 -41 -8 -18 -24 -63 -36
-102 -12 -38 -25 -77 -30 -85 -4 -9 -11 -36 -14 -60 -4 -25 -11 -58 -16 -75
-9 -29 -18 -99 -41 -310 -10 -94 -2 -288 17 -407 6 -35 4 -39 -22 -49 -35 -13
-154 -39 -209 -46 -40 -4 -40 -4 -64 47 -78 164 -320 280 -480 229 -114 -36
-189 -86 -235 -156 -51 -77 -68 -146 -63 -255 4 -97 15 -136 59 -203 45 -70
75 -96 158 -137 39 -20 60 -23 165 -22 120 0 120 0 185 37 36 21 77 42 93 48
17 7 30 21 33 37 4 15 12 33 17 41 6 7 16 23 22 34 13 26 44 34 56 15 5 -7 9
-30 9 -51 0 -43 -35 -87 -70 -87 -25 0 -28 -44 -4 -78 38 -55 110 8 140 124
21 81 20 90 -22 276 -5 23 -3 28 17 32 13 3 64 15 113 27 112 27 131 21 141
-48 4 -26 11 -53 15 -58 5 -6 13 -29 19 -50 19 -82 61 -186 127 -318 59 -118
66 -132 76 -135 4 -2 8 -9 8 -16 0 -7 16 -35 35 -62 19 -27 35 -53 35 -57 0
-14 76 -121 126 -178 55 -62 223 -231 271 -271 37 -32 151 -114 236 -171 32
-21 61 -45 64 -52 4 -13 -13 -57 -70 -174 -36 -73 -51 -73 -189 0 -10 5 -22 9
-28 9 -5 0 -43 16 -84 35 -41 19 -80 35 -86 35 -5 0 -10 5 -10 10 0 16 -52 12
-71 -6 -24 -22 -9 -50 31 -59 16 -4 30 -10 30 -15 0 -4 16 -11 35 -14 55 -11
125 -44 125 -60 0 -13 -56 -46 -79 -46 -26 0 -95 -44 -140 -88 -26 -26 -60
-74 -77 -107 -27 -55 -29 -69 -29 -170 0 -110 2 -121 47 -212 16 -32 106 -115
148 -135 163 -80 337 -58 459 57 28 27 51 54 51 62 0 7 4 13 9 13 5 0 13 10
16 23 4 12 13 37 22 56 19 42 15 293 -5 313 -7 7 -12 20 -12 30 0 9 -27 45
-60 78 -36 36 -60 69 -60 82 0 32 100 227 120 233 9 3 43 -6 76 -21 32 -14 73
-32 91 -40 17 -8 37 -14 45 -14 8 0 18 -4 24 -9 5 -6 27 -14 49 -20 340 -88
391 -94 705 -88 140 2 271 9 290 15 19 6 58 16 85 22 46 10 91 21 205 50 25 6
49 15 54 21 6 5 16 9 24 9 13 0 51 16 159 66 86 40 91 37 146 -76 61 -128 61
-129 -31 -192 -26 -18 -52 -37 -58 -43 -6 -5 -22 -17 -34 -25 -58 -39 -151
-135 -148 -153 6 -37 33 -43 83 -19 75 36 75 37 75 -88 0 -61 4 -118 9 -128 4
-9 16 -35 26 -57 22 -47 98 -130 140 -153 128 -69 274 -68 410 2 99 51 195
219 195 340 -1 156 -126 337 -257 370 -37 9 -49 17 -51 34 -3 17 4 23 40 32
93 26 152 70 146 112 -5 35 -46 35 -106 -1 -27 -17 -55 -31 -63 -31 -8 0 -23
-7 -33 -15 -11 -8 -26 -15 -33 -15 -8 0 -41 -14 -75 -30 -33 -17 -70 -30 -82
-30 -20 0 -65 46 -66 67 -1 4 -9 26 -20 48 -11 22 -19 44 -20 48 0 5 -7 15
-16 24 -30 30 -6 67 66 100 8 3 62 42 120 87 119 91 300 267 380 371 30 39 57
72 60 75 7 6 100 146 116 175 46 80 144 290 144 306 0 6 6 25 14 42 22 51 51
141 95 297 5 20 13 25 36 24 41 -2 99 -12 173 -31 71 -18 69 -11 43 -123 -17
-76 -13 -190 9 -235 11 -22 19 -45 20 -50 0 -16 49 -65 64 -65 7 0 21 15 31
34 20 37 13 59 -25 71 -19 6 -40 71 -40 124 0 50 44 61 61 16 2 -5 19 -33 38
-60 58 -85 150 -146 253 -166 90 -18 229 9 285 56 6 6 28 23 48 39 36 29 105
135 105 162 0 8 8 38 17 66 17 53 14 89 -17 200 -21 73 -115 188 -185 224 -44
23 -130 44 -180 44 -85 0 -208 -44 -249 -89 -19 -21 -51 -28 -60 -12 -10 16
33 141 65 185 36 51 33 76 -9 76 -29 0 -82 -44 -82 -69 0 -23 -41 -185 -50
-196 -4 -5 -11 -26 -15 -45 -10 -52 -28 -104 -39 -116 -12 -12 -71 -7 -156 14
-25 7 -62 14 -83 18 l-39 5 6 57 c18 180 17 380 -3 537 -22 176 -37 260 -51
290 -5 11 -12 36 -16 55 -3 19 -10 41 -14 50 -4 8 -17 47 -29 85 -20 60 -56
146 -93 219 -40 79 -98 181 -131 234 l-40 64 39 37 c21 20 62 55 89 76 28 22
52 42 55 45 3 3 16 12 30 21 27 17 30 16 109 -35 148 -95 357 -65 479 68 72
79 122 196 122 285 0 74 -49 195 -102 251 -117 125 -285 168 -435 111 -35 -13
-63 -27 -63 -32 0 -5 -6 -9 -14 -9 -25 0 -122 -106 -151 -166 -27 -54 -29 -67
-28 -165 1 -92 4 -112 27 -159 32 -66 33 -86 4 -101 -13 -7 -25 -15 -28 -18
-3 -4 -18 -17 -35 -30 -16 -12 -51 -43 -77 -67 -26 -24 -53 -44 -61 -44 -8 0
-31 21 -52 48 -94 118 -371 366 -463 413 -15 8 -29 17 -32 20 -16 19 -230 133
-345 184 -54 24 -260 85 -286 85 -10 0 -20 4 -23 9 -3 4 -33 11 -66 15 -33 4
-73 11 -89 17 -15 6 -82 13 -147 17 l-119 7 -3 134 c-3 144 7 181 48 181 18 0
84 27 105 43 6 4 31 23 56 42 173 128 196 393 51 573 -90 112 -272 162 -418
114z m249 -82 c61 -32 135 -108 164 -169 37 -79 36 -173 -3 -255 -27 -57 -113
-156 -136 -156 -6 0 -20 -8 -31 -17 -29 -27 -199 -25 -247 2 -57 33 -80 52
-114 97 -55 75 -71 123 -71 218 1 74 4 91 27 130 54 90 129 152 208 171 55 13
158 2 203 -21z m-2268 -1091 c49 -8 74 -20 117 -54 50 -39 118 -123 118 -144
0 -5 7 -22 15 -37 8 -16 15 -49 15 -74 0 -47 -28 -142 -49 -163 -6 -6 -11 -16
-11 -22 0 -21 -95 -102 -145 -125 -41 -19 -61 -22 -120 -17 -202 14 -360 215
-312 398 35 132 111 213 222 238 56 13 79 13 150 0z m2270 1 c144 -9 277 -31
395 -66 30 -9 77 -22 104 -30 28 -8 54 -18 60 -24 5 -5 16 -10 23 -10 15 0
260 -119 305 -148 226 -144 451 -345 570 -506 21 -28 41 -55 46 -61 4 -5 18
-28 32 -50 13 -22 42 -69 65 -105 44 -68 165 -310 165 -329 0 -5 6 -25 14 -43
13 -31 27 -78 57 -188 48 -179 73 -526 50 -690 -23 -165 -31 -216 -40 -235 -6
-11 -14 -40 -20 -65 -18 -81 -33 -134 -47 -167 -8 -17 -14 -36 -14 -41 0 -6
-6 -23 -14 -39 -94 -194 -130 -263 -180 -348 -33 -55 -64 -105 -70 -111 -6 -6
-18 -22 -26 -34 -60 -89 -298 -327 -390 -390 -12 -8 -47 -34 -78 -56 -96 -70
-375 -214 -416 -214 -8 0 -17 -4 -20 -9 -3 -5 -23 -12 -43 -16 -21 -4 -42 -10
-48 -15 -27 -21 -277 -68 -435 -81 -142 -11 -377 -5 -464 12 -199 41 -287 61
-301 70 -5 4 -26 10 -45 14 -61 13 -309 131 -440 209 -80 47 -93 56 -123 81
-7 6 -43 36 -82 67 -75 60 -159 145 -241 243 -89 107 -184 233 -184 244 0 6
-5 11 -10 11 -6 0 -15 10 -20 23 -6 12 -14 29 -19 37 -16 27 -69 143 -106 235
-20 50 -40 99 -45 110 -13 30 -40 121 -50 168 -24 113 -29 137 -42 207 -17 96
-18 493 -1 570 44 205 74 317 101 383 7 16 12 32 12 38 0 15 136 300 173 364
14 23 48 75 59 90 123 163 169 217 257 305 140 139 288 255 416 328 71 39 239
120 285 136 236 84 365 114 550 126 58 4 110 7 115 8 6 1 78 -3 160 -8z m2173
-2 c97 -24 180 -100 221 -206 40 -101 18 -215 -59 -304 -47 -55 -89 -79 -181
-104 -63 -16 -68 -16 -133 1 -54 15 -79 29 -120 66 -50 45 -64 67 -101 153
-22 50 -16 175 11 226 21 41 76 103 118 133 59 42 159 56 244 35z m-4955
-2252 c78 -36 143 -98 178 -172 28 -57 31 -72 27 -137 -4 -80 -25 -132 -85
-205 -47 -57 -98 -88 -171 -103 -102 -21 -215 14 -284 89 -52 57 -74 101 -88
173 -23 130 38 254 164 329 93 56 176 64 259 26z m5562 -12 c55 -26 135 -92
135 -112 0 -6 4 -12 10 -12 5 0 13 -12 16 -27 4 -15 13 -38 20 -52 35 -66 6
-202 -59 -288 -116 -152 -347 -162 -476 -21 -118 130 -132 261 -41 393 44 64
80 91 180 134 62 26 140 21 215 -15z m-4109 -1971 c180 -60 284 -242 229 -401
-68 -195 -258 -284 -430 -202 -69 33 -144 102 -172 158 -13 27 -18 60 -18 122
0 101 22 155 96 230 52 54 92 77 164 95 68 17 74 17 131 -2z m2627 -29 c66
-34 118 -83 146 -141 13 -26 28 -56 32 -65 5 -10 9 -47 9 -83 0 -120 -70 -226
-190 -286 -81 -40 -183 -41 -256 -3 -65 34 -130 98 -160 157 -48 97 -26 260
45 334 48 50 131 104 172 113 63 13 146 2 202 -26z"/>
<path d="M3596 4620 c-81 -26 -142 -103 -172 -217 -15 -60 -16 -80 -7 -115 6
-23 9 -46 7 -50 -10 -16 -37 -7 -70 21 -56 50 -191 54 -279 9 -21 -11 -47 -30
-57 -41 -10 -12 -22 -27 -27 -33 -22 -26 -41 -89 -41 -135 0 -86 56 -161 157
-211 35 -17 63 -33 63 -35 0 -2 -26 -29 -58 -61 -66 -65 -100 -128 -109 -199
-20 -169 210 -261 374 -151 56 38 63 31 63 -70 0 -145 87 -242 218 -242 72 0
115 27 166 104 31 48 37 65 42 133 8 111 7 109 60 71 45 -32 49 -33 143 -33
114 0 150 14 194 76 26 36 28 45 24 107 -6 99 -24 139 -89 203 -32 31 -58 59
-58 63 0 3 15 12 33 20 78 33 177 168 177 243 0 39 -30 112 -62 145 -13 14
-43 36 -66 48 -37 19 -54 22 -125 18 -72 -4 -148 -27 -167 -49 -3 -3 -15 -11
-28 -18 -29 -15 -29 -14 -35 124 -5 113 -19 157 -64 207 -51 58 -144 88 -207
68z m91 -71 c40 -15 82 -57 104 -106 42 -93 16 -295 -57 -434 -28 -54 -34 -79
-20 -79 13 0 86 63 86 74 0 4 12 21 28 38 79 93 115 126 159 147 26 12 56 26
65 32 44 23 131 -6 186 -62 28 -29 32 -40 32 -86 0 -49 -3 -56 -47 -102 -68
-70 -112 -87 -278 -101 -77 -7 -146 -16 -154 -20 -19 -10 71 -50 113 -50 32 0
128 -30 169 -53 35 -19 117 -99 133 -129 17 -32 19 -111 3 -140 -13 -25 -84
-57 -126 -58 -18 0 -52 10 -75 22 -50 26 -146 120 -168 163 -8 17 -28 48 -44
70 -70 96 -136 116 -92 28 32 -65 66 -152 82 -211 36 -135 2 -274 -81 -331
-39 -26 -59 -26 -101 0 -87 53 -125 193 -90 324 7 28 18 59 23 70 6 11 19 40
28 65 9 25 23 60 31 78 8 18 14 41 14 51 0 44 -43 3 -125 -119 -108 -162 -170
-210 -269 -210 -81 0 -156 59 -156 124 0 31 42 99 91 147 48 47 161 109 198
109 20 0 165 28 191 36 39 13 -25 24 -146 24 -147 0 -197 12 -279 66 -60 39
-84 77 -92 142 -5 42 -2 52 23 81 83 99 176 108 297 27 15 -11 66 -67 112
-126 94 -120 109 -134 129 -127 17 7 8 40 -32 122 -43 87 -62 172 -62 273 0
102 12 135 67 191 48 48 82 58 130 40z"/>
</g>
</svg>
