<?xml version="1.0" standalone="no"?>
<!DOCTYPE svg PUBLIC "-//W3C//DTD SVG 20010904//EN"
 "http://www.w3.org/TR/2001/REC-SVG-20010904/DTD/svg10.dtd">
<svg version="1.0" xmlns="http://www.w3.org/2000/svg"
 width="791.000000pt" height="876.000000pt" viewBox="0 0 791.000000 876.000000"
 preserveAspectRatio="xMidYMid meet">

<g transform="translate(0.000000,876.000000) scale(0.100000,-0.100000)"
fill="#000000" stroke="none">
<path d="M3695 8259 c-286 -39 -601 -149 -820 -290 -16 -10 -37 -22 -45 -26
-8 -4 -19 -11 -25 -15 -5 -5 -33 -25 -61 -46 -117 -86 -217 -179 -335 -314
-40 -46 -75 -85 -78 -88 -21 -18 -201 -312 -201 -328 0 -6 -4 -12 -9 -14 -21
-8 -118 -267 -147 -393 -7 -33 -23 -100 -35 -150 -14 -62 -22 -134 -25 -233
-2 -79 -6 -147 -8 -151 -3 -4 -67 -11 -142 -14 -80 -4 -142 -11 -150 -18 -12
-9 -13 -35 -7 -137 7 -133 14 -152 65 -167 37 -12 58 -36 58 -67 0 -16 12 -56
26 -91 23 -56 25 -70 19 -145 -8 -102 4 -129 62 -134 l38 -3 3 -1818 2 -1817
-26 -10 c-14 -6 -52 -10 -85 -10 -89 0 -89 0 -89 -189 0 -195 3 -191 -113
-192 -115 -2 -156 -5 -164 -13 -10 -10 -13 -455 -3 -461 5 -3 1135 -5 2511 -5
1826 0 2506 3 2516 11 10 9 12 56 10 227 -3 195 -5 216 -22 228 -13 10 -50 14
-116 14 -54 0 -109 4 -123 10 l-26 10 0 169 c0 201 0 201 -93 201 -34 0 -69 5
-77 10 -13 8 -15 217 -18 1767 -1 967 1 1783 5 1812 7 50 11 55 41 65 18 6 37
18 43 26 5 9 7 53 3 107 -6 82 -5 95 15 126 11 19 21 46 21 60 0 46 18 75 62
101 67 39 78 66 78 195 0 135 4 132 -165 139 -66 2 -126 9 -132 14 -8 6 -13
34 -13 67 -1 158 -63 520 -106 618 -8 17 -14 38 -14 46 0 9 -4 18 -9 21 -5 3
-12 18 -16 33 -7 29 -90 201 -132 273 -121 208 -339 449 -548 606 -234 176
-469 284 -772 354 -133 30 -492 47 -628 29z m545 -87 c230 -49 298 -73 520
-182 112 -55 120 -59 190 -104 157 -100 382 -311 492 -460 21 -28 41 -55 46
-61 16 -20 140 -233 176 -305 66 -129 80 -161 91 -210 4 -19 11 -39 15 -45 4
-5 11 -27 14 -49 4 -21 11 -46 16 -55 9 -16 20 -73 40 -202 6 -37 9 -118 8
-180 l-3 -114 -180 -5 c-99 -3 -189 -2 -201 2 -19 6 -21 16 -28 125 -13 235
-76 451 -182 630 -54 89 -79 129 -88 139 -6 6 -18 22 -26 34 -62 91 -229 257
-312 310 -35 22 -68 44 -75 50 -7 5 -21 10 -33 10 -11 0 -23 7 -26 15 -4 8
-14 15 -24 15 -25 0 -19 -34 6 -39 10 -2 23 -9 27 -17 4 -8 12 -14 17 -14 23
0 321 -293 365 -360 17 -25 32 -47 36 -50 24 -22 139 -246 139 -271 0 -8 4
-19 9 -24 12 -14 39 -102 73 -240 30 -124 48 -298 31 -308 -5 -3 -77 -8 -161
-11 -83 -2 -156 -7 -162 -11 -6 -4 -10 -58 -10 -133 1 -140 9 -162 65 -176 34
-9 54 -32 55 -65 0 -13 13 -51 30 -85 27 -55 30 -72 32 -171 l3 -110 45 -5 45
-5 3 -1649 c1 -1042 -1 -1653 -8 -1660 -5 -5 -102 -11 -215 -14 -184 -4 -208
-3 -225 13 -18 16 -18 57 -19 1318 -1 716 -4 1331 -7 1367 -23 245 -152 466
-371 633 -73 54 -176 117 -195 117 -8 0 -19 5 -24 10 -6 6 -49 20 -95 32 -112
27 -340 30 -444 4 -189 -47 -351 -131 -445 -230 -68 -72 -110 -121 -110 -128
0 -4 -6 -13 -13 -20 -56 -58 -147 -272 -147 -347 0 -14 -4 -42 -10 -60 -6 -22
-10 -523 -11 -1355 -1 -727 -6 -1328 -10 -1338 -8 -14 -22 -15 -106 -11 -54 2
-147 0 -208 -5 -95 -8 -112 -7 -122 6 -18 22 -19 3302 -1 3320 7 7 25 12 40
12 33 0 36 8 41 135 2 61 8 98 19 115 9 14 19 43 23 65 12 69 15 75 65 100 59
30 69 54 76 190 7 134 11 130 -175 139 -80 4 -148 9 -153 12 -11 7 -10 181 2
240 10 51 30 139 50 214 6 24 15 49 19 55 5 5 18 43 30 82 13 40 27 75 32 78
5 4 9 16 9 29 0 12 4 26 9 32 4 5 13 24 19 41 l11 33 -25 -16 c-13 -9 -24 -23
-24 -30 0 -8 -5 -14 -10 -14 -6 0 -15 -10 -20 -22 -6 -13 -14 -30 -19 -38 -27
-49 -41 -89 -123 -349 -13 -43 -26 -129 -34 -238 -4 -46 -12 -87 -18 -92 -6
-5 -92 -13 -191 -17 -230 -8 -221 -14 -205 142 23 224 28 260 39 287 6 16 11
40 11 55 0 33 22 102 78 247 65 170 186 379 316 545 59 77 234 258 256 265 8
3 31 19 50 35 120 102 320 218 500 289 30 12 64 26 75 31 27 12 121 38 175 50
272 58 286 59 480 56 136 -3 210 -9 280 -24z m-1532 -2058 c8 -2 12 -26 12
-74 0 -119 44 -110 -528 -110 -366 0 -491 3 -500 12 -16 16 -16 139 1 160 6 9
26 19 42 21 37 5 955 -3 973 -9z m3430 1 c19 -7 16 -149 -4 -169 -14 -14 -74
-16 -509 -16 -559 0 -505 -10 -505 94 0 90 6 95 125 98 138 4 877 -2 893 -7z
m-3553 -265 c22 -18 18 -44 -10 -86 -22 -32 -25 -47 -25 -126 0 -49 -4 -97
-10 -107 -8 -16 -33 -19 -247 -24 -236 -7 -416 2 -433 19 -5 5 -10 49 -11 97
-1 62 -6 96 -19 120 -28 52 -36 108 -18 121 22 16 753 3 773 -14z m3433 5 c18
-6 15 -50 -8 -92 -16 -30 -20 -57 -20 -135 0 -91 -2 -98 -22 -110 -30 -16
-620 -16 -660 0 -28 11 -28 13 -28 102 0 81 -3 95 -32 150 -29 57 -30 61 -14
79 16 18 34 19 394 14 207 -2 383 -6 390 -8z m-1970 -300 c147 -34 227 -64
315 -118 158 -97 298 -268 370 -452 52 -133 51 -101 54 -1524 2 -912 0 -1328
-7 -1336 -9 -10 -189 -13 -868 -12 l-857 2 -3 1350 c-2 1143 0 1357 12 1395 8
25 17 60 21 79 4 18 19 56 33 85 14 28 34 69 45 91 54 110 119 184 251 283 63
47 182 112 205 112 5 0 22 7 37 15 16 8 40 15 54 15 14 0 45 7 70 14 60 19
185 20 268 1z m-1614 -111 c15 -6 16 -173 16 -1792 l0 -1786 27 -28 c46 -48
30 -51 -241 -56 -135 -2 -256 -2 -268 1 l-24 6 3 1818 c3 1698 4 1819 20 1831
12 9 76 12 234 12 120 0 224 -3 233 -6z m3450 -10 c14 -14 16 -193 16 -1824 0
-1779 0 -1809 -19 -1820 -12 -6 -116 -10 -269 -10 -213 0 -251 2 -262 15 -11
13 -9 21 11 48 l24 32 1 1755 c0 965 4 1766 9 1780 4 14 13 28 19 32 6 4 111
8 233 8 188 0 224 -2 237 -16z m-579 -3404 c26 -22 19 -102 -12 -152 -16 -24
-33 -52 -39 -62 -6 -11 -24 -24 -40 -28 -34 -9 -1493 -10 -2166 -1 l-457 6
-10 29 c-6 16 -22 43 -36 60 -20 23 -25 40 -25 83 0 32 5 57 13 64 17 14 301
16 1679 15 844 -1 1081 -4 1093 -14z m756 -330 c17 -10 19 -23 19 -143 0 -90
-4 -137 -12 -145 -16 -16 -4269 -18 -4299 -2 -17 10 -19 22 -19 143 0 90 4
137 12 145 16 16 4269 18 4299 2z m293 -376 c24 -9 24 -295 -1 -315 -13 -12
-403 -14 -2438 -17 -2153 -2 -2424 -1 -2435 13 -17 20 -26 260 -11 298 l11 27
2429 0 c1336 0 2436 -3 2445 -6z"/>
<path d="M4085 7700 c28 -11 60 -20 71 -20 12 0 46 -7 75 -16 30 -9 86 -25
124 -36 39 -11 78 -24 87 -29 10 -5 32 -9 49 -9 18 0 37 -7 44 -16 8 -11 19
-14 33 -10 29 10 28 22 -3 30 -14 4 -25 11 -25 16 0 6 -5 10 -11 10 -5 0 -29
8 -52 18 -142 62 -192 74 -327 78 l-115 4 50 -20z"/>
<path d="M4610 7544 c0 -9 7 -14 17 -12 25 5 28 28 4 28 -12 0 -21 -6 -21 -16z"/>
<path d="M3763 7292 c-21 -2 -37 -11 -44 -24 -10 -19 -9 -20 23 -12 46 10 108
5 130 -11 54 -37 53 -15 49 -609 -3 -604 -1 -588 -64 -626 -43 -27 -142 -28
-156 -3 -5 10 -13 14 -18 10 -4 -5 3 -17 16 -28 19 -15 39 -19 108 -19 97 0
135 16 166 69 18 31 19 31 102 31 82 0 224 23 235 38 3 4 19 17 37 27 68 43
123 156 123 256 0 69 -48 168 -105 215 -23 19 -49 34 -57 34 -9 0 -21 7 -28
15 -12 15 -7 21 62 80 13 11 35 38 48 60 20 34 24 53 24 125 0 75 -3 90 -26
126 -55 85 -124 115 -272 119 -114 3 -132 10 -121 50 3 11 8 32 11 48 l7 27
-79 1 c-44 0 -92 1 -109 2 -16 1 -45 1 -62 -1z m443 -187 c95 -39 147 -177
108 -286 -32 -89 -117 -139 -237 -139 -41 0 -56 4 -61 16 -3 9 -6 105 -6 214
0 179 2 200 18 209 21 13 134 4 178 -14z m10 -476 c48 -12 103 -59 130 -109
14 -27 18 -58 19 -140 0 -91 -3 -110 -22 -140 -57 -91 -121 -122 -244 -118
l-84 3 -3 235 c-1 129 0 245 3 257 4 16 14 23 38 25 42 5 112 -1 163 -13z"/>
<path d="M3615 7164 c-72 -11 -135 -55 -165 -114 -35 -70 -45 -133 -30 -194
14 -60 27 -81 78 -129 39 -37 43 -74 8 -83 -29 -7 -58 -39 -87 -96 -19 -36
-23 -64 -27 -163 -3 -94 -1 -123 9 -131 36 -27 183 -50 254 -40 63 10 56 26
-10 26 -147 0 -213 111 -167 281 19 72 99 129 182 129 37 0 48 -7 102 -57 l61
-58 -7 75 c-4 41 -3 97 3 124 16 87 -9 95 -50 15 -24 -48 -31 -52 -92 -50
-105 2 -167 81 -167 214 0 89 6 109 51 160 26 30 45 41 80 47 49 9 121 -2 127
-19 6 -18 32 -12 32 7 0 33 -33 52 -96 56 -32 2 -72 2 -89 0z"/>
<path d="M3270 3712 c-39 -26 -49 -44 -50 -84 0 -74 96 -127 154 -83 22 17 46
61 46 84 0 48 -55 102 -103 100 -12 0 -33 -8 -47 -17z"/>
</g>
</svg>
