<?xml version="1.0" standalone="no"?>
<!DOCTYPE svg PUBLIC "-//W3C//DTD SVG 20010904//EN"
 "http://www.w3.org/TR/2001/REC-SVG-20010904/DTD/svg10.dtd">
<svg version="1.0" xmlns="http://www.w3.org/2000/svg"
 width="729.000000pt" height="858.000000pt" viewBox="0 0 729.000000 858.000000"
 preserveAspectRatio="xMidYMid meet">

<g transform="translate(0.000000,858.000000) scale(0.100000,-0.100000)"
fill="#000000" stroke="none">
<path d="M3710 8195 c-151 -17 -289 -60 -475 -145 -142 -66 -339 -230 -442
-368 -15 -20 -30 -39 -34 -42 -25 -22 -150 -267 -178 -350 -47 -136 -75 -309
-75 -465 0 -171 34 -1314 44 -1465 5 -74 9 -223 9 -330 1 -161 -2 -199 -15
-218 -8 -12 -20 -22 -25 -22 -9 0 -97 -42 -169 -81 -107 -58 -223 -153 -281
-229 -85 -112 -91 -138 -87 -398 3 -202 5 -220 26 -263 12 -25 36 -61 53 -80
25 -29 29 -39 24 -68 -7 -34 -29 -435 -45 -811 -5 -113 -12 -230 -14 -260 -3
-30 -12 -172 -20 -315 -23 -398 -44 -710 -55 -815 -14 -131 -15 -129 20 -161
41 -38 104 -41 137 -6 12 13 22 29 22 35 0 16 -45 33 -65 26 -8 -4 -23 0 -31
7 -15 12 -16 33 -10 164 3 82 11 197 16 255 6 58 15 184 21 280 6 96 17 276
25 400 7 124 21 351 29 505 8 154 18 294 21 310 3 17 8 104 12 194 4 98 11
166 17 168 6 2 38 -15 72 -36 33 -22 73 -43 89 -47 15 -4 39 -13 53 -20 14 -8
35 -14 47 -14 12 0 34 -4 50 -9 16 -5 42 -12 58 -16 l29 -6 -6 -177 c-3 -97
-10 -231 -16 -297 -19 -208 -30 -374 -41 -580 -12 -234 -23 -321 -44 -344 -37
-41 -11 -91 48 -91 48 0 59 24 51 116 -4 48 -2 105 4 136 6 29 15 145 21 257
5 113 15 243 20 290 5 47 15 167 20 266 17 275 27 386 37 396 5 5 41 5 88 -1
44 -5 150 -17 235 -25 85 -8 186 -20 223 -25 106 -16 765 -23 1012 -11 327 16
691 42 849 62 62 7 83 6 92 -3 14 -14 34 -194 34 -302 0 -39 4 -87 9 -106 6
-19 15 -149 21 -288 6 -138 15 -286 20 -328 5 -42 11 -151 12 -242 2 -181 6
-192 61 -192 50 0 61 12 54 60 -3 24 -11 47 -19 51 -9 6 -15 47 -19 141 -15
303 -30 548 -39 618 -6 41 -14 165 -19 275 -6 110 -12 227 -15 260 -3 33 -2
65 2 72 9 14 89 43 120 43 25 0 83 23 175 70 63 32 92 37 100 18 2 -7 5 -78 6
-158 1 -80 6 -185 11 -235 15 -129 28 -341 40 -640 5 -143 15 -296 20 -340 6
-44 15 -168 20 -275 5 -107 14 -280 20 -384 13 -204 11 -211 -39 -221 -53 -10
-65 -43 -26 -69 39 -26 88 -20 124 13 l31 29 -5 108 c-3 60 -8 129 -11 154 -3
25 -12 167 -20 315 -9 149 -22 367 -29 485 -17 263 -30 496 -50 870 -8 157
-17 318 -20 359 -5 71 -4 76 29 125 56 86 66 139 66 358 0 198 -5 231 -47 312
-59 114 -189 222 -398 328 -38 19 -82 38 -96 41 -14 4 -30 17 -35 29 -11 27
-3 506 14 823 18 333 35 802 39 1070 4 246 -2 312 -43 470 -38 143 -119 324
-187 415 -53 71 -169 202 -232 262 -140 131 -323 235 -495 281 -146 40 -185
46 -315 52 -77 3 -156 7 -175 9 -19 2 -82 -2 -140 -9z m401 -71 c88 -15 199
-43 244 -63 11 -5 40 -17 65 -27 124 -49 163 -72 284 -163 89 -67 116 -97 116
-130 0 -30 52 -91 78 -91 40 0 139 -126 203 -260 17 -36 36 -73 40 -82 5 -10
13 -34 18 -55 5 -21 19 -72 31 -113 20 -69 23 -104 27 -417 3 -195 0 -440 -7
-570 -6 -125 -16 -388 -21 -583 -5 -195 -15 -436 -22 -535 -14 -205 -10 -198
-100 -171 -63 20 -131 34 -216 46 -36 6 -78 14 -95 19 -17 5 -80 13 -141 16
-60 4 -126 11 -145 15 -19 5 -155 14 -302 20 -461 20 -933 -12 -1268 -85 -36
-8 -76 -16 -90 -19 -14 -3 -53 -11 -87 -19 -34 -8 -67 -11 -73 -7 -15 9 -25
204 -39 720 -6 190 -15 467 -21 615 -16 366 -9 805 14 905 34 149 108 340 167
428 16 24 29 46 29 51 0 29 245 273 335 333 99 65 265 148 297 148 8 0 18 4
23 9 15 13 150 48 250 65 122 19 291 19 406 0z m119 -3214 c637 -44 991 -132
1275 -318 83 -54 177 -148 200 -200 9 -20 20 -45 25 -54 18 -32 22 -94 10
-138 -21 -80 -166 -190 -282 -215 -18 -4 -39 -11 -48 -16 -39 -20 -213 -50
-405 -69 -55 -6 -127 -15 -159 -21 -57 -10 -148 -17 -481 -39 -358 -23 -1272
1 -1480 39 -57 10 -119 19 -284 42 -41 5 -81 14 -90 18 -9 5 -34 12 -56 16
-22 4 -44 10 -50 15 -5 4 -23 10 -38 14 -46 11 -158 66 -202 99 -36 27 -49 41
-97 97 -21 23 -14 128 10 183 19 41 129 163 183 202 59 44 253 145 276 145 6
0 24 6 40 14 156 79 516 148 913 176 85 6 156 13 159 16 9 8 429 4 581 -6z
m-2115 -884 c34 -26 144 -80 185 -91 14 -3 34 -10 45 -15 31 -13 122 -40 168
-50 23 -5 60 -13 82 -18 166 -39 430 -65 898 -88 275 -14 369 -15 585 -5 518
23 658 31 717 40 33 6 107 15 165 21 215 21 314 41 510 103 97 30 199 73 210
87 10 13 47 29 54 23 3 -3 6 -33 6 -66 0 -188 -103 -287 -385 -365 -140 -39
-190 -48 -380 -72 -49 -6 -121 -17 -160 -25 -38 -8 -110 -16 -160 -20 -49 -3
-133 -10 -185 -15 -123 -12 -815 -12 -990 1 -74 5 -214 13 -310 18 -96 5 -182
12 -190 15 -8 3 -55 10 -105 15 -49 5 -117 15 -150 21 -136 27 -251 52 -275
60 -14 4 -50 16 -80 25 -143 43 -248 123 -290 220 -19 45 -35 162 -24 188 8
23 21 21 59 -7z"/>
<path d="M3852 7049 c-51 -15 -107 -78 -127 -143 -14 -45 -17 -74 -11 -141 7
-98 0 -105 -63 -57 -61 48 -144 63 -212 41 -78 -26 -138 -101 -139 -172 0 -82
103 -197 178 -197 10 0 23 -5 30 -12 9 -9 1 -19 -31 -42 -90 -66 -117 -113
-117 -202 0 -49 4 -66 23 -87 28 -33 88 -57 140 -57 40 0 127 26 137 41 3 4
18 12 33 18 33 13 34 13 40 -89 3 -41 13 -90 22 -107 48 -95 178 -118 248 -45
37 39 67 129 67 201 0 33 4 62 9 65 4 3 21 -6 37 -19 63 -54 168 -69 238 -35
80 39 97 119 46 224 -22 47 -39 67 -75 89 -25 16 -45 32 -45 36 0 4 23 18 51
31 58 27 86 51 118 98 29 42 31 137 4 182 -39 66 -130 102 -216 86 -19 -4 -62
-24 -95 -45 -51 -33 -61 -37 -65 -23 -2 10 0 26 4 37 4 11 8 47 8 80 2 165
-111 281 -237 244z m85 -49 c31 -11 57 -40 88 -100 22 -41 27 -202 7 -222 -7
-7 -12 -20 -12 -31 0 -10 -11 -43 -25 -73 -14 -30 -25 -59 -25 -64 0 -22 28
-8 56 28 101 130 233 199 307 161 12 -6 37 -25 55 -42 39 -37 43 -91 12 -142
-47 -77 -125 -105 -265 -98 -38 2 -80 2 -92 -2 -31 -7 -30 -35 1 -35 55 0 195
-54 252 -97 49 -36 84 -96 84 -142 0 -31 -6 -44 -30 -65 -38 -32 -88 -41 -135
-26 -46 15 -144 112 -173 170 -25 52 -82 119 -82 96 0 -23 31 -140 40 -151 5
-6 14 -49 21 -97 17 -114 3 -184 -47 -233 -19 -19 -45 -37 -58 -41 -57 -14
-126 58 -147 154 -14 60 -8 90 42 243 16 48 29 97 29 110 l0 22 -26 -24 c-14
-13 -38 -44 -52 -69 -95 -166 -188 -228 -286 -190 -94 35 -87 160 14 235 57
43 202 105 245 105 13 0 26 4 29 9 8 13 -54 21 -154 19 -65 0 -96 4 -130 19
-62 28 -106 72 -121 122 -11 37 -10 47 4 74 21 38 103 97 135 97 28 0 98 -28
137 -54 17 -11 62 -53 100 -93 70 -73 85 -83 85 -62 0 11 -29 78 -53 124 -6
11 -12 65 -15 120 -3 94 -2 103 25 155 28 55 79 100 113 100 9 0 30 -5 47 -10z"/>
</g>
</svg>
