<svg width="599" height="991" viewBox="0 0 599 991" fill="none" xmlns="http://www.w3.org/2000/svg">
<path d="M264.723 2.03219C245.071 7.98266 230.189 20.8753 224.084 37.735C218.933 51.8178 220.841 74.0329 228.472 91.2892C231.716 98.6281 236.295 107.355 238.584 110.727C243.354 117.67 241.446 120.248 231.525 120.248C221.222 120.248 196.038 126 178.485 132.149C119.149 152.976 80.2276 196.414 80.0368 241.439C79.846 301.341 139.945 352.515 224.656 364.416C233.814 365.804 241.637 366.994 242.018 367.391C242.209 367.589 239.538 373.143 235.722 379.49C226.755 394.565 221.222 412.019 221.222 424.515C221.222 434.433 221.031 434.83 213.018 439.193C198.9 446.929 191.077 455.061 184.781 468.351C179.248 480.251 178.867 482.235 179.63 497.508C180.393 511.194 181.728 516.748 187.452 529.64C191.268 538.169 194.511 545.508 194.511 545.707C194.511 545.905 188.788 546.698 181.728 547.492C150.82 550.665 108.846 563.36 81.754 577.442C53.3261 592.517 23.5627 620.484 11.7336 643.294C-3.91122 674.038 -3.91122 706.964 11.7336 737.708C23.5627 760.519 53.3261 788.486 81.754 803.56C108.846 817.643 150.82 830.337 181.728 833.511C188.788 834.304 194.511 835.098 194.511 835.296C194.511 835.494 191.268 842.833 187.452 851.362C181.728 864.255 180.393 869.809 179.63 883.495C178.867 898.768 179.248 900.751 184.781 912.652C194.13 932.09 208.248 942.603 234.768 949.545C266.249 957.876 310.703 951.727 350.96 933.677C360.881 929.313 369.467 926.537 369.658 927.528C370.039 928.718 388.928 929.512 420.79 929.512H471.158V945.38C471.158 967.595 477.264 979.297 493.481 987.826C498.442 990.405 506.073 991 534.501 991C572.278 991 579.719 989.215 588.877 978.901C599.752 966.603 598.988 999.727 598.988 503.062C598.988 6.39586 599.752 39.5201 588.877 27.2225C579.719 16.9084 572.278 15.1232 534.501 15.1232C503.974 15.1232 498.823 15.5199 492.527 18.8918C477.073 27.0242 471.158 38.7267 471.158 60.7435V76.6114H454.178H437.388L420.408 59.1567C394.651 32.5779 364.125 13.9331 330.736 4.21403C315.473 -0.14965 276.552 -1.53809 264.723 2.03219ZM366.223 58.5616C372.138 60.7435 381.105 65.7022 386.256 69.0741L395.796 75.6196L383.013 76.2147L370.039 76.8097V119.256V161.703L360.118 158.728C327.684 148.81 300.591 122.628 295.249 95.8512C291.433 77.6031 299.637 61.9336 316.045 55.5864C326.539 51.6194 352.677 53.0079 366.223 58.5616ZM293.341 173.009C347.907 184.712 379.197 221.208 367.177 259.291C364.506 267.423 360.881 272.977 352.105 281.903C338.177 296.184 327.111 302.729 304.216 309.87C288.953 314.63 283.992 315.225 259.38 315.225C234.768 315.225 229.808 314.63 214.545 309.87C191.65 302.729 180.584 296.184 166.656 281.903C147.386 262.068 143.57 241.836 155.018 219.224C165.893 197.406 191.268 180.348 224.084 173.207C242.018 169.042 275.025 169.042 293.341 173.009ZM370.039 366.201V407.854H382.631C398.849 407.854 398.085 410.433 378.434 420.945C335.124 444.152 294.868 433.044 294.677 397.937C294.677 371.358 317.572 344.184 352.486 329.308C371.375 321.176 370.039 318.597 370.039 366.201ZM470.204 440.582V472.318H432.046C394.46 472.318 393.697 472.318 386.829 467.359C382.822 464.582 379.579 461.805 379.579 461.21C379.579 460.615 385.875 455.656 393.506 450.301C400.947 444.945 414.303 433.243 423.079 424.119L438.724 407.656L454.56 408.251L470.204 408.846V440.582ZM318.907 488.979C334.743 493.144 349.243 500.285 362.026 509.607L370.039 515.558V557.806C370.039 584.781 369.276 600.451 368.131 601.244C366.987 602.038 359.736 603.029 352.105 603.625C312.42 606.798 263.578 579.426 248.696 545.707C242.4 531.426 242.782 513.574 249.65 503.458C260.907 486.995 289.144 481.045 318.907 488.979ZM271.019 602.831C339.513 621.278 375.572 671.658 353.822 718.469C340.848 746.436 309.749 768.254 267.394 779.163C243.545 785.51 195.084 785.51 171.235 779.163C128.879 768.254 97.7804 746.436 84.8066 718.469C60.7669 666.303 107.892 611.558 188.025 598.269C208.248 595.096 250.413 597.277 271.019 602.831ZM367.94 779.56C369.276 780.552 370.039 794.238 370.039 823.197V865.445L361.644 871.594C322.151 901.148 266.63 903.528 248.887 876.553C245.071 870.602 244.117 866.635 244.117 857.114C244.117 815.858 297.92 775.196 349.243 777.577C358.401 777.973 366.796 778.767 367.94 779.56Z" fill="#E8007A"/>
</svg>
