<svg width="1198" height="995" viewBox="0 0 1198 995" fill="none" xmlns="http://www.w3.org/2000/svg">
  <!-- Dark (plum) B — left side -->
  <path d="M294.804 0.42829C267.709 4.39625 241.186 13.9193 219.243 27.212C201.688 37.7271 180.126 55.7813 170.204 68.2803L161.808 78.597H145.971H130.324L129.37 62.13C128.225 44.4726 125.554 37.1319 117.158 28.204C106.664 17.2921 102.657 16.3001 69.4555 15.5065C31.2931 14.5145 21.1801 16.8953 10.6855 28.9976C6.86922 33.5607 2.86218 39.3143 1.90812 42.0918C0.763247 45.2662 0 218.864 0 505.152C0 791.44 0.763247 965.039 1.90812 968.213C2.86218 970.99 6.86922 976.744 10.6855 981.307C21.1801 993.409 31.2931 995.79 69.4555 994.798C102.657 994.005 106.664 993.013 117.158 982.101C125.554 973.173 128.225 965.832 129.37 948.175L130.324 931.708H179.554C208.557 931.708 228.974 930.914 228.974 929.922C228.974 928.93 236.988 931.708 246.529 936.072C275.532 948.968 294.804 953.73 324.571 954.92C361.779 956.507 383.15 950.754 400.705 934.287C422.839 913.653 426.655 886.275 411.963 852.547C408.719 845.206 406.238 839.056 406.238 838.461C406.238 837.866 414.443 836.477 424.365 835.088C505.079 824.573 573.771 781.124 593.615 727.755C599.912 710.891 600.866 682.322 595.523 664.466C588.463 640.063 572.435 618.041 547.248 598.201C514.81 573.004 463.291 553.363 418.641 549.395C410.818 548.8 404.712 547.61 405.093 547.014C426.655 506.74 425.701 474.798 401.85 451.982C397.079 447.419 390.21 442.26 386.585 440.475C380.669 437.499 380.097 436.308 379.143 425.793C377.616 411.31 370.747 391.47 362.924 379.368C359.489 374.21 356.818 369.845 356.818 369.448C356.818 369.051 363.115 368.258 370.747 367.663C378.189 366.869 392.691 364.29 402.804 361.512C454.132 348.021 493.248 319.65 510.612 283.542C518.054 268.265 518.054 267.869 518.054 245.251C518.054 222.832 517.863 222.039 510.803 206.564C501.644 186.724 479.51 163.114 457.567 150.417C432.952 135.934 399.56 125.221 367.694 121.253L356.627 119.864L360.634 113.713C368.457 101.611 376.09 83.1602 377.998 71.0579C383.341 40.1079 366.549 12.9274 336.783 4.19785C326.288 1.22188 303.772 -0.960495 294.804 0.42829ZM279.348 56.9717C283.355 58.1621 290.225 62.5268 294.423 66.6932C301.864 73.6371 302.246 74.8275 303.009 87.3265C303.772 98.4368 303.009 102.008 298.811 110.936C289.843 130.18 268.663 148.83 245.575 157.758C227.638 164.503 228.974 167.479 228.974 120.261V78.597H216.19H203.215L207.985 74.6291C227.066 59.3524 259.695 51.2181 279.348 56.9717ZM380.669 176.804C409.291 184.938 435.242 203.588 444.591 222.634C458.33 250.806 442.874 283.74 407.765 301.795C386.203 312.706 367.503 316.873 339.645 316.873C311.786 316.873 293.087 312.706 271.525 301.795C226.303 278.582 216.571 234.736 249.582 203.389C264.656 189.105 290.225 177.399 315.793 173.034C327.242 171.249 369.221 173.63 380.669 176.804ZM248.819 332.943C279.921 345.442 303.391 374.21 303.391 400.2C303.391 414.286 298.239 423.016 285.645 429.563C267.9 438.689 236.225 433.928 213.709 418.651L205.123 412.897L217.144 412.302L228.974 411.707V369.051V326.594L234.317 327.785C237.179 328.578 243.667 330.761 248.819 332.943ZM178.409 429.364C187.95 438.888 201.116 450.395 207.603 454.958L219.815 463.092L212.564 468.25C205.313 473.409 204.932 473.409 167.533 473.409H129.752V442.657V411.905H145.589H161.236L178.409 429.364ZM330.104 492.257C362.352 504.16 363.115 541.261 331.44 572.012C306.062 596.614 267.327 610.303 239.66 604.351L228.974 602.169V560.505V519.04L237.179 512.89C252.826 500.986 274.769 491.463 292.896 488.487C302.437 487.098 320.945 488.884 330.104 492.257ZM404.521 600.383C441.538 605.145 473.022 618.636 493.63 638.873C508.323 653.157 515.192 664.664 518.245 680.338C523.015 704.145 515.383 725.176 494.202 746.007C439.439 799.773 319.991 799.773 265.228 746.007C244.048 725.176 236.416 704.145 241.186 680.338C244.239 664.664 251.108 653.157 265.801 638.873C296.521 608.914 351.284 593.638 404.521 600.383ZM282.783 784.1C299.002 789.06 318.656 800.765 331.44 813.264C372.274 853.142 357.963 897.385 304.345 896.79C281.257 896.591 257.596 888.06 237.179 872.387L228.974 866.236V824.771V783.108L237.179 781.124C247.292 778.545 269.426 780.132 282.783 784.1Z" fill="#1A0A2E"/>
  <!-- Pink B — right side -->
  <g transform="translate(599, 0)">
    <path d="M264.723 2.03219C245.071 7.98266 230.189 20.8753 224.084 37.735C218.933 51.8178 220.841 74.0329 228.472 91.2892C231.716 98.6281 236.295 107.355 238.584 110.727C243.354 117.67 241.446 120.248 231.525 120.248C221.222 120.248 196.038 126 178.485 132.149C119.149 152.976 80.2276 196.414 80.0368 241.439C79.846 301.341 139.945 352.515 224.656 364.416C233.814 365.804 241.637 366.994 242.018 367.391C242.209 367.589 239.538 373.143 235.722 379.49C226.755 394.565 221.222 412.019 221.222 424.515C221.222 434.433 221.031 434.83 213.018 439.193C198.9 446.929 191.077 455.061 184.781 468.351C179.248 480.251 178.867 482.235 179.63 497.508C180.393 511.194 181.728 516.748 187.452 529.64C191.268 538.169 194.511 545.508 194.511 545.707C194.511 545.905 188.788 546.698 181.728 547.492C150.82 550.665 108.846 563.36 81.754 577.442C53.3261 592.517 23.5627 620.484 11.7336 643.294C-3.91122 674.038 -3.91122 706.964 11.7336 737.708C23.5627 760.519 53.3261 788.486 81.754 803.56C108.846 817.643 150.82 830.337 181.728 833.511C188.788 834.304 194.511 835.098 194.511 835.296C194.511 835.494 191.268 842.833 187.452 851.362C181.728 864.255 180.393 869.809 179.63 883.495C178.867 898.768 179.248 900.751 184.781 912.652C194.13 932.09 208.248 942.603 234.768 949.545C266.249 957.876 310.703 951.727 350.96 933.677C360.881 929.313 369.467 926.537 369.658 927.528C370.039 928.718 388.928 929.512 420.79 929.512H471.158V945.38C471.158 967.595 477.264 979.297 493.481 987.826C498.442 990.405 506.073 991 534.501 991C572.278 991 579.719 989.215 588.877 978.901C599.752 966.603 598.988 999.727 598.988 503.062C598.988 6.39586 599.752 39.5201 588.877 27.2225C579.719 16.9084 572.278 15.1232 534.501 15.1232C503.974 15.1232 498.823 15.5199 492.527 18.8918C477.073 27.0242 471.158 38.7267 471.158 60.7435V76.6114H454.178H437.388L420.408 59.1567C394.651 32.5779 364.125 13.9331 330.736 4.21403C315.473 -0.14965 276.552 -1.53809 264.723 2.03219ZM366.223 58.5616C372.138 60.7435 381.105 65.7022 386.256 69.0741L395.796 75.6196L383.013 76.2147L370.039 76.8097V119.256V161.703L360.118 158.728C327.684 148.81 300.591 122.628 295.249 95.8512C291.433 77.6031 299.637 61.9336 316.045 55.5864C326.539 51.6194 352.677 53.0079 366.223 58.5616ZM293.341 173.009C347.907 184.712 379.197 221.208 367.177 259.291C364.506 267.423 360.881 272.977 352.105 281.903C338.177 296.184 327.111 302.729 304.216 309.87C288.953 314.63 283.992 315.225 259.38 315.225C234.768 315.225 229.808 314.63 214.545 309.87C191.65 302.729 180.584 296.184 166.656 281.903C147.386 262.068 143.57 241.836 155.018 219.224C165.893 197.406 191.268 180.348 224.084 173.207C242.018 169.042 275.025 169.042 293.341 173.009ZM370.039 366.201V407.854H382.631C398.849 407.854 398.085 410.433 378.434 420.945C335.124 444.152 294.868 433.044 294.677 397.937C294.677 371.358 317.572 344.184 352.486 329.308C371.375 321.176 370.039 318.597 370.039 366.201ZM470.204 440.582V472.318H432.046C394.46 472.318 393.697 472.318 386.829 467.359C382.822 464.582 379.579 461.805 379.579 461.21C379.579 460.615 385.875 455.656 393.506 450.301C400.947 444.945 414.303 433.243 423.079 424.119L438.724 407.656L454.56 408.251L470.204 408.846V440.582ZM318.907 488.979C334.743 493.144 349.243 500.285 362.026 509.607L370.039 515.558V557.806C370.039 584.781 369.276 600.451 368.131 601.244C366.987 602.038 359.736 603.029 352.105 603.625C312.42 606.798 263.578 579.426 248.696 545.707C242.4 531.426 242.782 513.574 249.65 503.458C260.907 486.995 289.144 481.045 318.907 488.979ZM271.019 602.831C339.513 621.278 375.572 671.658 353.822 718.469C340.848 746.436 309.749 768.254 267.394 779.163C243.545 785.51 195.084 785.51 171.235 779.163C128.879 768.254 97.7804 746.436 84.8066 718.469C60.7669 666.303 107.892 611.558 188.025 598.269C208.248 595.096 250.413 597.277 271.019 602.831ZM367.94 779.56C369.276 780.552 370.039 794.238 370.039 823.197V865.445L361.644 871.594C322.151 901.148 266.63 903.528 248.887 876.553C245.071 870.602 244.117 866.635 244.117 857.114C244.117 815.858 297.92 775.196 349.243 777.577C358.401 777.973 366.796 778.767 367.94 779.56Z" fill="#E8007A"/>
  </g>
</svg>
