<svg width="599" height="995" viewBox="0 0 599 995" fill="none" xmlns="http://www.w3.org/2000/svg">
<path d="M294.804 0.42829C267.709 4.39625 241.186 13.9193 219.243 27.212C201.688 37.7271 180.126 55.7813 170.204 68.2803L161.808 78.597H145.971H130.324L129.37 62.13C128.225 44.4726 125.554 37.1319 117.158 28.204C106.664 17.2921 102.657 16.3001 69.4555 15.5065C31.2931 14.5145 21.1801 16.8953 10.6855 28.9976C6.86922 33.5607 2.86218 39.3143 1.90812 42.0918C0.763247 45.2662 0 218.864 0 505.152C0 791.44 0.763247 965.039 1.90812 968.213C2.86218 970.99 6.86922 976.744 10.6855 981.307C21.1801 993.409 31.2931 995.79 69.4555 994.798C102.657 994.005 106.664 993.013 117.158 982.101C125.554 973.173 128.225 965.832 129.37 948.175L130.324 931.708H179.554C208.557 931.708 228.974 930.914 228.974 929.922C228.974 928.93 236.988 931.708 246.529 936.072C275.532 948.968 294.804 953.73 324.571 954.92C361.779 956.507 383.15 950.754 400.705 934.287C422.839 913.653 426.655 886.275 411.963 852.547C408.719 845.206 406.238 839.056 406.238 838.461C406.238 837.866 414.443 836.477 424.365 835.088C505.079 824.573 573.771 781.124 593.615 727.755C599.912 710.891 600.866 682.322 595.523 664.466C588.463 640.063 572.435 618.041 547.248 598.201C514.81 573.004 463.291 553.363 418.641 549.395C410.818 548.8 404.712 547.61 405.093 547.014C426.655 506.74 425.701 474.798 401.85 451.982C397.079 447.419 390.21 442.26 386.585 440.475C380.669 437.499 380.097 436.308 379.143 425.793C377.616 411.31 370.747 391.47 362.924 379.368C359.489 374.21 356.818 369.845 356.818 369.448C356.818 369.051 363.115 368.258 370.747 367.663C378.189 366.869 392.691 364.29 402.804 361.512C454.132 348.021 493.248 319.65 510.612 283.542C518.054 268.265 518.054 267.869 518.054 245.251C518.054 222.832 517.863 222.039 510.803 206.564C501.644 186.724 479.51 163.114 457.567 150.417C432.952 135.934 399.56 125.221 367.694 121.253L356.627 119.864L360.634 113.713C368.457 101.611 376.09 83.1602 377.998 71.0579C383.341 40.1079 366.549 12.9274 336.783 4.19785C326.288 1.22188 303.772 -0.960495 294.804 0.42829ZM279.348 56.9717C283.355 58.1621 290.225 62.5268 294.423 66.6932C301.864 73.6371 302.246 74.8275 303.009 87.3265C303.772 98.4368 303.009 102.008 298.811 110.936C289.843 130.18 268.663 148.83 245.575 157.758C227.638 164.503 228.974 167.479 228.974 120.261V78.597H216.19H203.215L207.985 74.6291C227.066 59.3524 259.695 51.2181 279.348 56.9717ZM380.669 176.804C409.291 184.938 435.242 203.588 444.591 222.634C458.33 250.806 442.874 283.74 407.765 301.795C386.203 312.706 367.503 316.873 339.645 316.873C311.786 316.873 293.087 312.706 271.525 301.795C226.303 278.582 216.571 234.736 249.582 203.389C264.656 189.105 290.225 177.399 315.793 173.034C327.242 171.249 369.221 173.63 380.669 176.804ZM248.819 332.943C279.921 345.442 303.391 374.21 303.391 400.2C303.391 414.286 298.239 423.016 285.645 429.563C267.9 438.689 236.225 433.928 213.709 418.651L205.123 412.897L217.144 412.302L228.974 411.707V369.051V326.594L234.317 327.785C237.179 328.578 243.667 330.761 248.819 332.943ZM178.409 429.364C187.95 438.888 201.116 450.395 207.603 454.958L219.815 463.092L212.564 468.25C205.313 473.409 204.932 473.409 167.533 473.409H129.752V442.657V411.905H145.589H161.236L178.409 429.364ZM330.104 492.257C362.352 504.16 363.115 541.261 331.44 572.012C306.062 596.614 267.327 610.303 239.66 604.351L228.974 602.169V560.505V519.04L237.179 512.89C252.826 500.986 274.769 491.463 292.896 488.487C302.437 487.098 320.945 488.884 330.104 492.257ZM404.521 600.383C441.538 605.145 473.022 618.636 493.63 638.873C508.323 653.157 515.192 664.664 518.245 680.338C523.015 704.145 515.383 725.176 494.202 746.007C439.439 799.773 319.991 799.773 265.228 746.007C244.048 725.176 236.416 704.145 241.186 680.338C244.239 664.664 251.108 653.157 265.801 638.873C296.521 608.914 351.284 593.638 404.521 600.383ZM282.783 784.1C299.002 789.06 318.656 800.765 331.44 813.264C372.274 853.142 357.963 897.385 304.345 896.79C281.257 896.591 257.596 888.06 237.179 872.387L228.974 866.236V824.771V783.108L237.179 781.124C247.292 778.545 269.426 780.132 282.783 784.1Z" fill="#1A0A2E"/>
</svg>
